<?xml version="1.0" standalone="no"?>
<!DOCTYPE svg PUBLIC "-//W3C//DTD SVG 20010904//EN"
 "http://www.w3.org/TR/2001/REC-SVG-20010904/DTD/svg10.dtd">
<svg version="1.0" xmlns="http://www.w3.org/2000/svg"
 width="248" height="100" viewBox="0 0 384.000000 345.000000"
 preserveAspectRatio="xMidYMid meet">

<g transform="translate(0.000000,345.000000) scale(0.100000,-0.100000)"
fill="#000000" stroke="none">
<path d="M1815 3373 c-215 -26 -302 -39 -425 -64 -355 -74 -652 -214 -895
-424 -96 -83 -172 -165 -210 -230 -36 -61 -112 -282 -131 -382 -30 -162 -18
-341 32 -451 13 -29 24 -55 24 -58 0 -10 84 -149 121 -199 50 -69 86 -101 215
-193 126 -90 232 -144 450 -230 214 -85 294 -107 510 -142 393 -65 613 -56
1019 40 150 36 508 156 608 203 127 62 285 173 378 267 73 73 94 104 141 196
111 220 139 373 103 560 -30 160 -201 455 -351 607 -72 74 -237 212 -279 235
-66 35 -354 143 -430 160 -49 12 -146 35 -215 52 -194 46 -511 72 -665 53z
m662 -119 c-3 -3 -12 -4 -19 -1 -8 3 -5 6 6 6 11 1 17 -2 13 -5z m40 -10 c-3
-3 -12 -4 -19 -1 -8 3 -5 6 6 6 11 1 17 -2 13 -5z m53 -94 c0 -5 -5 -10 -11
-10 -5 0 -7 5 -4 10 3 6 8 10 11 10 2 0 4 -4 4 -10z m-1360 -25 c0 -12 -19
-12 -23 0 -4 9 -1 12 9 8 7 -3 14 -7 14 -8z m1799 -44 c21 -18 21 -19 2 -24
-14 -3 -18 -1 -14 9 3 8 0 14 -6 14 -6 0 -11 5 -11 10 0 14 4 13 29 -9z
m-2051 -18 c-28 -7 -21 -20 18 -39 l37 -18 -22 -17 c-27 -22 -27 -29 0 -22 16
4 20 2 17 -8 -3 -8 -10 -15 -16 -15 -7 -1 -19 -2 -27 -3 -26 -2 -17 -31 10
-31 29 0 34 -16 8 -23 -10 -3 -3 -5 16 -6 29 -1 32 -3 21 -16 -10 -12 -16 -13
-27 -4 -23 20 -28 0 -5 -21 12 -11 35 -20 52 -20 32 0 38 -8 18 -28 -16 -16
17 -41 54 -42 20 0 25 -4 22 -17 -6 -22 45 -50 57 -31 5 8 12 7 24 -5 18 -18
12 -37 -11 -37 -8 0 -13 -4 -9 -10 3 -5 13 -7 23 -4 13 5 14 4 3 -4 -7 -5 -11
-14 -8 -19 4 -6 -4 -9 -18 -7 -14 1 -25 -2 -25 -7 0 -6 -4 -7 -10 -4 -18 11
-10 -21 10 -43 l21 -22 -23 0 c-13 0 -29 4 -37 9 -9 6 -22 4 -35 -4 -12 -7
-42 -17 -68 -20 -61 -9 -62 -20 -3 -19 29 0 45 -4 45 -12 0 -18 -27 -25 -56
-14 -16 6 -32 6 -43 1 -9 -5 -30 -8 -45 -7 -15 2 -44 -1 -64 -7 -44 -11 -162
-15 -162 -4 0 4 -7 7 -15 7 -8 0 -15 6 -15 13 0 8 -4 7 -10 -3 -8 -13 -10 -13
-10 2 0 11 -14 21 -40 29 -22 7 -40 15 -40 19 0 5 -12 11 -26 14 -24 6 -25 9
-11 24 9 11 12 24 7 37 -4 11 -5 24 -2 29 2 4 -1 12 -8 16 -9 6 -9 11 3 21 10
10 12 22 6 43 -5 16 -6 33 -3 37 3 5 0 18 -6 29 -9 17 -7 22 15 32 27 12 32
24 13 30 -26 9 224 188 266 191 11 0 23 5 26 9 4 4 23 9 43 10 20 2 37 6 37
11 0 4 10 6 23 6 16 -1 18 -2 5 -6z m2194 -45 c67 -39 67 -40 51 -64 -14 -22
-22 -24 -91 -24 -66 0 -82 -4 -131 -31 -59 -33 -101 -66 -163 -124 -29 -27
-45 -35 -75 -35 -66 0 -109 -17 -122 -48 -8 -18 -25 -33 -46 -41 -19 -7 -35
-17 -35 -22 0 -5 -5 -9 -11 -9 -5 0 -41 -27 -80 -60 -38 -33 -75 -60 -83 -60
-17 0 -56 34 -56 49 0 6 -9 11 -20 11 -13 0 -18 5 -14 15 4 8 13 15 21 15 9 0
13 6 9 15 -3 9 0 15 9 15 21 0 19 20 -2 20 -10 1 -1 7 20 15 45 15 57 25 34
25 -10 0 -17 7 -17 15 0 11 8 13 32 8 23 -4 29 -3 24 6 -5 7 -1 20 8 30 16 17
16 20 1 35 -17 17 -12 20 32 17 11 -1 24 3 28 8 3 6 19 11 36 11 16 0 29 5 29
11 0 6 10 9 23 7 34 -7 30 20 -5 38 -15 8 -28 17 -28 20 0 4 38 4 84 2 76 -4
83 -3 78 14 -3 14 2 18 26 18 17 0 41 -4 54 -9 16 -6 29 -5 42 4 11 8 32 11
54 9 34 -5 35 -4 19 9 -14 11 -15 16 -5 20 7 3 -4 6 -24 6 -59 1 -44 16 18 18
60 3 86 16 77 39 -3 9 2 14 13 15 11 0 28 2 39 4 11 2 29 -4 40 -13 33 -28 63
-42 90 -42 14 0 25 3 25 6 0 9 -24 30 -45 39 -11 4 -22 9 -25 10 -3 2 -15 6
-27 10 -13 4 -23 12 -23 17 0 14 38 -1 112 -44z m-823 -41 c13 -16 5 -27 -21
-27 -20 0 -21 1 -12 24 7 20 18 20 33 3z m941 -36 c0 -16 -108 -66 -164 -76
-44 -8 -60 -15 -62 -28 -4 -30 -24 -47 -97 -83 -74 -36 -127 -44 -127 -19 0 8
6 15 13 15 6 0 38 25 69 56 81 78 139 107 198 99 50 -7 104 9 128 38 13 15 42
13 42 -2z m-604 -22 c-27 -16 -76 -18 -76 -2 0 9 15 13 48 13 38 -1 44 -3 28
-11z m645 -9 c15 -8 18 -17 13 -37 -6 -24 -5 -26 22 -20 22 4 34 -1 52 -21 14
-15 35 -38 48 -52 21 -23 22 -30 13 -63 -10 -36 -41 -67 -66 -67 -7 0 -13 5
-13 10 0 6 7 10 15 10 8 0 15 5 15 11 0 24 -35 2 -38 -24 -4 -29 -11 -34 -30
-15 -9 9 -18 9 -37 0 -25 -12 -33 -36 -15 -47 6 -4 8 -10 5 -15 -3 -6 7 -3 22
5 15 8 47 23 70 34 l42 18 -2 -26 c-3 -34 17 -44 21 -11 2 14 8 31 14 37 6 7
8 19 5 27 -3 8 2 21 11 29 16 14 20 12 50 -23 59 -71 52 -116 -35 -227 -31
-38 -58 -92 -50 -99 2 -2 14 8 28 23 13 14 17 23 9 19 -8 -4 -6 0 5 9 11 9 19
20 18 24 -1 5 11 21 27 36 17 16 30 37 30 47 0 11 7 18 18 18 19 0 55 -83 107
-243 28 -88 30 -105 13 -142 -14 -31 -28 -28 -46 9 l-13 27 -18 -22 -17 -21
-17 26 c-19 28 -16 32 14 16 20 -11 24 -4 13 24 -3 9 -11 13 -18 9 -6 -4 -5 1
3 11 13 15 13 19 0 27 -25 15 -37 10 -59 -27 -12 -19 -25 -33 -28 -30 -8 9
-33 -46 -28 -60 3 -8 0 -11 -8 -8 -12 5 -29 -21 -41 -63 -4 -15 -2 -23 5 -23
7 0 9 -7 6 -16 -7 -19 3 -64 15 -64 5 0 19 11 31 25 12 14 26 25 31 25 4 0 1
-7 -7 -16 -18 -18 -18 -17 -10 -38 3 -9 10 -13 15 -10 5 3 8 -15 7 -41 l-1
-47 -36 7 c-20 4 -40 10 -46 13 -5 4 -22 7 -37 8 -44 3 -98 33 -111 62 -15 34
-55 69 -87 77 -14 4 -35 16 -47 27 -12 11 -27 17 -33 13 -6 -4 -17 -2 -25 5
-7 6 -39 14 -70 17 -39 4 -52 9 -43 15 9 7 6 8 -10 5 -33 -8 -178 20 -207 39
-14 9 -25 23 -25 31 0 10 -8 13 -30 9 -16 -2 -30 -3 -30 -1 0 15 15 35 26 35
8 0 14 5 14 10 0 6 -6 10 -14 10 -19 0 -27 51 -11 75 25 38 72 85 78 78 4 -3
7 0 8 8 1 8 2 21 3 31 2 29 147 188 236 260 47 39 49 46 10 50 -19 2 -27 -3
-35 -27 -15 -44 -24 -55 -46 -55 -11 0 -23 -10 -29 -24 -5 -14 -37 -51 -70
-83 -34 -32 -73 -80 -87 -108 -27 -55 -60 -95 -77 -95 -6 0 -19 -14 -28 -30
-23 -41 -38 -38 -31 7 5 32 4 35 -11 30 -15 -6 -17 -3 -11 22 3 17 2 32 -5 36
-10 6 -65 -30 -65 -43 0 -4 -6 -6 -13 -6 -8 1 -11 -5 -7 -16 5 -15 2 -17 -15
-13 -18 5 -20 10 -14 32 4 14 8 33 9 41 1 8 6 23 10 33 4 9 5 24 1 32 -3 8 1
21 9 28 7 8 10 19 5 26 -5 10 -11 7 -23 -9 -8 -12 -16 -17 -18 -11 -2 6 -24
-2 -49 -18 -25 -16 -57 -32 -70 -36 l-25 -7 22 21 c12 11 25 21 29 21 4 0 17
11 30 25 13 14 26 25 29 25 10 0 35 28 35 39 0 6 11 13 25 17 13 3 29 12 36
20 15 18 39 18 39 0 0 -24 26 -38 40 -21 7 8 17 15 23 15 5 0 39 25 74 55 69
59 92 66 122 36 12 -12 23 -16 34 -10 8 5 27 10 41 11 29 3 36 18 9 18 -10 0
8 16 41 34 32 19 70 46 83 60 13 14 30 26 38 26 34 0 146 44 166 66 26 28 24
27 50 14z m-1731 -30 c0 -5 -4 -10 -10 -10 -5 0 -10 5 -10 10 0 6 5 10 10 10
6 0 10 -4 10 -10z m265 0 c3 -5 1 -10 -4 -10 -6 0 -11 5 -11 10 0 6 2 10 4 10
3 0 8 -4 11 -10z m-785 -10 c0 -5 -5 -10 -11 -10 -5 0 -7 5 -4 10 3 6 8 10 11
10 2 0 4 -4 4 -10z m598 -1 c-2 -6 -8 -10 -13 -10 -5 0 -11 4 -13 10 -2 6 4
11 13 11 9 0 15 -5 13 -11z m1702 1 c0 -5 -4 -10 -10 -10 -5 0 -10 5 -10 10 0
6 5 10 10 10 6 0 10 -4 10 -10z m-1460 -15 c0 -8 -4 -15 -9 -15 -5 0 -11 7
-15 15 -3 9 0 15 9 15 8 0 15 -7 15 -15z m505 -5 c3 -5 2 -10 -4 -10 -5 0 -13
5 -16 10 -3 6 -2 10 4 10 5 0 13 -4 16 -10z m-88 -16 c-3 -3 -12 -4 -19 -1 -8
3 -5 6 6 6 11 1 17 -2 13 -5z m-657 -13 c0 -15 -16 -22 -35 -15 -13 5 -14 8
-3 15 18 12 38 11 38 0z m655 -12 c14 -14 -16 -10 -50 6 l-30 14 35 -6 c19 -3
39 -10 45 -14z m-435 1 c0 -5 -10 -14 -21 -21 -15 -8 -19 -8 -15 0 4 6 1 11
-6 12 -7 0 -4 4 7 9 27 12 35 12 35 0z m264 -19 c-7 -8 -35 9 -29 19 4 6 11 5
20 -3 7 -6 11 -14 9 -16z m61 9 c8 -13 -5 -13 -25 0 -13 8 -13 10 2 10 9 0 20
-4 23 -10z m105 -21 c0 -4 -7 -6 -15 -3 -9 4 -15 0 -15 -9 0 -8 -9 -17 -20
-20 -24 -6 -27 8 -4 17 8 3 13 10 10 15 -7 11 14 20 32 13 6 -2 12 -8 12 -13z
m-672 -16 c2 -8 -5 -13 -17 -13 -21 0 -35 13 -24 24 10 10 36 3 41 -11z m-153
-33 c-11 -12 -13 -20 -6 -20 7 0 9 -4 6 -10 -4 -6 -11 -5 -20 3 -12 10 -12 14
1 23 8 7 14 16 13 20 -3 21 2 27 13 16 9 -9 7 -16 -7 -32z m720 30 c-3 -5 -13
-10 -21 -10 -8 0 -12 5 -9 10 3 6 13 10 21 10 8 0 12 -4 9 -10z m-362 -44 c8
-20 -9 -38 -29 -33 -17 4 -17 6 3 12 27 9 21 25 -10 25 -17 0 -19 2 -8 9 17
11 38 5 44 -13z m252 4 c3 -5 1 -10 -4 -10 -6 0 -11 5 -11 10 0 6 2 10 4 10 3
0 8 -4 11 -10z m35 0 c0 -5 -4 -10 -10 -10 -5 0 -10 5 -10 10 0 6 5 10 10 10
6 0 10 -4 10 -10z m90 6 c0 -3 -4 -8 -10 -11 -5 -3 -10 -1 -10 4 0 6 5 11 10
11 6 0 10 -2 10 -4z m825 -16 c-3 -5 -10 -10 -16 -10 -5 0 -9 5 -9 10 0 6 7
10 16 10 8 0 12 -4 9 -10z m-1015 -20 c0 -5 -4 -10 -9 -10 -6 0 -13 5 -16 10
-3 6 1 10 9 10 9 0 16 -4 16 -10z m627 -5 c-4 -8 -2 -17 3 -20 5 -3 11 3 15
14 4 13 12 17 26 14 20 -5 20 -6 -3 -30 -13 -14 -36 -32 -52 -40 -27 -14 -28
-14 -22 3 4 11 10 31 13 47 3 15 10 27 15 27 6 0 8 -7 5 -15z m-552 -5 c4 -6
-7 -10 -27 -10 -25 0 -29 3 -18 10 19 13 37 13 45 0z m-645 -14 c0 -11 -19
-15 -25 -6 -3 5 1 10 9 10 9 0 16 -2 16 -4z m25 -6 c3 -5 1 -10 -4 -10 -6 0
-11 5 -11 10 0 6 2 10 4 10 3 0 8 -4 11 -10z m645 -30 c0 -11 -5 -20 -11 -20
-5 0 -7 5 -3 11 4 7 -3 10 -22 7 -15 -1 -29 2 -31 7 -1 6 13 11 32 12 29 3 35
0 35 -17z m51 1 c-7 -5 -11 -13 -7 -19 3 -6 1 -14 -5 -17 -19 -13 -22 4 -5 31
10 14 20 23 24 19 4 -3 0 -10 -7 -14z m-721 -2 c0 -13 -17 -20 -34 -13 -24 9
-19 22 9 22 14 0 25 -4 25 -9z m1869 -10 c-8 -5 -21 -9 -29 -9 -12 1 -11 4 4
15 10 8 23 12 29 8 5 -3 3 -9 -4 -14z m-2807 -43 c-2 -5 -9 -1 -14 8 -5 9 -6
21 -2 28 9 14 25 -22 16 -36z m1226 26 c2 -7 -2 -10 -12 -6 -9 3 -16 11 -16
16 0 13 23 5 28 -10z m-331 -18 c-3 -3 -12 -4 -19 -1 -8 3 -5 6 6 6 11 1 17
-2 13 -5z m210 -19 c14 3 31 1 39 -6 8 -6 28 -17 46 -23 50 -18 158 -89 158
-104 0 -7 -4 -11 -9 -8 -5 4 -12 0 -15 -6 -3 -7 -4 -4 -1 7 4 17 -2 24 -29 33
-19 7 -38 12 -43 11 -19 -3 -27 2 -14 10 11 7 8 13 -13 26 -29 19 -52 11 -25
-8 21 -16 31 -57 14 -57 -16 0 -40 28 -31 37 3 3 -3 13 -15 21 -11 8 -23 12
-25 9 -7 -7 26 -57 37 -57 5 0 9 -9 9 -21 0 -19 -2 -19 -35 8 -46 39 -126 150
-95 133 12 -6 33 -9 47 -5z m510 0 c0 -16 -22 -21 -32 -6 -3 5 3 12 12 14 10
3 18 5 19 6 0 0 1 -6 1 -14z m-283 -31 c5 -14 4 -15 -9 -4 -17 14 -19 20 -6
20 5 0 12 -7 15 -16z m-499 -24 c3 -5 1 -10 -4 -10 -6 0 -11 5 -11 10 0 6 2
10 4 10 3 0 8 -4 11 -10z m476 -7 c13 -15 12 -15 -8 -4 -24 12 -29 21 -14 21
5 0 15 -7 22 -17z m149 7 c0 -5 -2 -10 -4 -10 -3 0 -8 5 -11 10 -3 6 -1 10 4
10 6 0 11 -4 11 -10z m-550 -8 c0 -13 -12 -22 -22 -16 -10 6 -1 24 13 24 5 0
9 -4 9 -8z m575 -12 c3 -5 1 -10 -4 -10 -6 0 -11 5 -11 10 0 6 2 10 4 10 3 0
8 -4 11 -10z m-56 -29 c19 -12 21 -16 9 -25 -8 -6 -16 -14 -16 -18 -4 -20 -47
-2 -67 28 -16 25 -16 26 4 19 15 -5 21 -2 21 10 0 17 2 16 49 -14z m537 -8
c-10 -10 -19 5 -10 18 6 11 8 11 12 0 2 -7 1 -15 -2 -18z m-1038 -9 c18 -5 7
-21 -30 -40 -18 -9 -27 -11 -23 -4 6 9 2 9 -13 1 -12 -6 -37 -7 -63 -3 l-43 7
30 20 c46 31 86 37 142 19z m843 -13 c-8 -5 -20 -7 -28 -4 -21 8 -15 13 15 13
20 0 23 -3 13 -9z m63 -9 c2 -4 -4 -8 -15 -8 -10 0 -19 4 -19 8 0 4 6 8 14 8
8 0 17 -4 20 -8z m-846 -29 c-2 -12 -14 -19 -37 -21 -21 -2 -31 0 -26 7 3 6
15 11 26 11 10 0 19 5 19 10 0 6 5 10 11 10 6 0 9 -8 7 -17z m141 -3 c10 -5 7
-13 -15 -33 -22 -20 -34 -25 -58 -20 -47 9 -60 22 -41 43 16 18 88 24 114 10z
m489 -7 c-2 -10 -14 -19 -26 -21 -23 -4 -23 -3 -5 16 23 25 35 27 31 5z m52 8
c0 -21 -13 -41 -26 -41 -17 0 -17 5 -4 31 11 20 30 26 30 10z m300 -10 c0 -16
-30 -41 -50 -41 -10 0 -25 -11 -34 -25 -17 -26 -9 -34 12 -13 8 8 15 8 27 -2
21 -18 19 -33 -4 -21 -19 11 -33 2 -42 -27 -3 -9 -10 -7 -26 8 -12 11 -27 20
-33 20 -15 0 -12 32 5 54 11 15 15 16 16 5 0 -10 2 -10 6 -1 7 18 23 15 24 -5
0 -14 3 -13 11 5 6 12 19 22 30 22 10 0 17 3 17 8 -3 17 2 22 21 22 11 0 20
-4 20 -9z m-1207 -18 c-7 -2 -19 -2 -25 0 -7 3 -2 5 12 5 14 0 19 -2 13 -5z
m82 -11 c-3 -3 -11 0 -18 7 -9 10 -8 11 6 5 10 -3 15 -9 12 -12z m1218 -10
c-3 -12 -9 -22 -14 -22 -12 0 -11 7 2 32 13 25 20 19 12 -10z m-874 4 c7 -8
11 -32 9 -53 -3 -34 -6 -38 -33 -40 l-30 -2 28 12 c23 9 27 16 24 42 -2 17
-10 31 -18 31 -8 1 -20 2 -27 3 -20 2 -4 21 17 21 10 0 24 -6 30 -14z m41 4
c0 -5 -2 -10 -4 -10 -3 0 -8 5 -11 10 -3 6 -1 10 4 10 6 0 11 -4 11 -10z m84
-6 c4 -10 1 -14 -6 -12 -15 5 -23 28 -10 28 5 0 13 -7 16 -16z m-354 -4 c0 -5
-7 -10 -16 -10 -8 0 -12 5 -9 10 3 6 10 10 16 10 5 0 9 -4 9 -10z m600 -10
c-28 -8 -35 -6 -26 8 3 6 16 7 29 4 22 -6 22 -6 -3 -12z m110 -21 c7 -16 19
-29 26 -29 23 0 127 -75 110 -78 -20 -4 -21 -21 -1 -28 8 -4 15 -10 15 -16 0
-15 -74 -2 -110 21 -19 11 -42 21 -51 21 -9 0 -24 9 -34 20 -23 26 -11 25 31
-1 19 -11 34 -16 34 -11 0 6 -6 12 -12 15 -10 3 -9 8 2 22 14 16 13 17 -7 11
-23 -7 -43 12 -24 23 6 4 9 15 6 24 -7 18 -32 30 -46 21 -5 -3 -9 -1 -9 5 0 5
6 11 13 14 23 8 45 -5 57 -34z m56 -1 l19 -21 -27 18 c-29 18 -34 25 -20 25 5
0 17 -10 28 -22z m-996 -3 c-14 -8 -32 -14 -40 -14 -8 0 -1 7 15 14 39 18 57
18 25 0z m130 0 c0 -17 -2 -18 -24 -9 -23 9 -20 24 4 24 11 0 20 -7 20 -15z
m71 2 c19 3 29 1 29 -6 0 -17 -63 -10 -66 7 -1 7 0 8 2 3 3 -6 19 -8 35 -4z
m46 -9 c-3 -8 -6 -5 -6 6 -1 11 2 17 5 13 3 -3 4 -12 1 -19z m68 12 c3 -6 -1
-7 -9 -4 -18 7 -21 14 -7 14 6 0 13 -4 16 -10z m122 4 c-3 -3 -12 -4 -19 -1
-8 3 -5 6 6 6 11 1 17 -2 13 -5z m443 -4 c19 0 21 -51 3 -63 -18 -11 -44 3
-54 30 -14 37 -11 46 14 39 12 -3 29 -6 37 -6z m390 -30 c0 -19 -19 -40 -36
-40 -9 0 -9 6 -1 24 7 13 16 22 22 19 5 -2 -1 5 -15 16 l-25 22 28 -12 c15 -7
27 -20 27 -29z m-890 15 c0 -8 -2 -15 -4 -15 -2 0 -6 7 -10 15 -3 8 -1 15 4
15 6 0 10 -7 10 -15z m955 -5 c-3 -5 -12 -10 -18 -10 -7 0 -6 4 3 10 19 12 23
12 15 0z m-1205 -30 c19 -7 39 -17 45 -21 5 -5 38 -9 72 -9 40 0 72 -6 87 -15
12 -8 46 -17 74 -20 80 -8 105 -21 98 -49 -4 -17 -1 -25 12 -30 9 -3 33 -18
52 -32 26 -19 43 -24 67 -21 22 4 33 1 37 -9 3 -8 13 -14 23 -14 10 0 32 -9
49 -19 18 -11 42 -21 55 -23 20 -3 56 -47 58 -72 1 -5 -21 -6 -49 -2 -39 5
-53 3 -70 -11 -27 -23 -25 -33 5 -33 16 0 23 -4 19 -13 -3 -8 5 -18 18 -25 23
-11 23 -11 -4 -11 -15 -1 -33 6 -42 14 -20 21 -36 19 -36 -5 0 -11 5 -20 12
-20 14 0 58 -40 58 -52 0 -5 -4 -7 -8 -4 -5 3 -53 0 -108 -6 -54 -6 -107 -11
-116 -12 -9 0 -16 -4 -15 -9 1 -5 -5 -12 -13 -16 -8 -4 -28 -15 -45 -23 -16
-8 -29 -20 -28 -26 2 -6 -4 -9 -12 -6 -10 4 -15 0 -15 -14 0 -12 -8 -27 -18
-34 -10 -7 -22 -22 -25 -32 -13 -34 -30 -1 -41 81 -14 93 -11 113 15 113 11 0
24 10 29 23 5 12 9 16 9 10 2 -23 18 -14 73 39 59 59 101 85 106 69 2 -6 8
-11 12 -11 14 0 50 42 44 52 -9 14 14 9 52 -11 19 -10 35 -23 35 -28 -1 -12
32 -10 36 3 2 7 -7 14 -21 18 -13 3 -31 12 -38 19 -28 26 -159 66 -220 67 -43
0 -68 8 -68 22 0 22 -96 84 -147 97 -63 15 -144 48 -143 57 0 5 -11 9 -26 9
-27 1 -47 22 -39 43 3 8 5 17 5 22 0 8 21 4 90 -20z m383 -3 c-3 -5 -9 -3 -14
4 -4 7 -5 17 -2 22 3 5 9 3 14 -4 4 -7 5 -17 2 -22z m77 13 c-8 -14 -8 -20 0
-20 6 0 13 7 16 15 7 17 40 20 49 5 8 -13 -13 -80 -25 -80 -5 0 -29 9 -55 20
-47 20 -49 25 -17 63 22 25 46 23 32 -3z m619 -51 l-24 -6 26 -11 c29 -11 47
-11 67 1 7 5 12 3 12 -6 0 -18 -26 -26 -68 -19 -35 5 -56 31 -46 56 5 12 10
13 31 3 l26 -12 -24 -6z m-1303 -13 c-9 -14 -13 -32 -9 -43 6 -15 5 -16 -9 -3
-16 15 -12 34 15 68 17 22 20 4 3 -22z m1229 24 c3 -6 -1 -7 -9 -4 -18 7 -21
14 -7 14 6 0 13 -4 16 -10z m-415 -36 c0 -7 -4 -16 -10 -19 -6 -3 -7 1 -4 9 4
11 0 16 -10 16 -16 0 -21 12 -9 23 8 9 33 -12 33 -29z m33 21 c-3 -9 -8 -14
-10 -11 -3 3 -2 9 2 15 9 16 15 13 8 -4z m-718 -36 c11 -3 19 -9 17 -14 -7
-22 -52 4 -52 30 0 6 4 5 8 -1 4 -7 16 -13 27 -15z m790 11 c30 -12 25 -31 -6
-23 -18 5 -20 3 -15 -15 7 -22 4 -26 -36 -36 -21 -5 -28 -3 -28 8 0 8 -6 17
-12 20 -9 3 -3 14 17 30 33 29 42 30 80 16z m-254 -17 c12 -16 12 -17 -1 -7
-8 6 -22 14 -30 17 -13 5 -12 6 1 6 9 1 23 -7 30 -16z m599 7 c0 -5 -7 -10
-16 -10 -8 0 -12 -5 -9 -10 4 -6 15 -8 25 -5 23 7 36 -11 14 -19 -9 -4 -14
-13 -10 -22 3 -9 2 -12 -5 -9 -6 4 -8 13 -5 21 4 10 -1 10 -21 -3 -26 -17 -27
-17 -20 1 4 11 2 28 -7 40 -13 21 -12 22 20 24 19 2 34 -2 34 -8z m-1070 -37
c0 -8 5 -11 10 -8 6 4 8 11 5 16 -4 5 -1 9 4 9 6 0 11 -4 11 -10 0 -5 9 -10
20 -10 11 0 17 -5 15 -12 -4 -9 9 -13 43 -14 56 -2 100 -22 137 -61 22 -25 23
-29 10 -43 -23 -22 -66 5 -78 49 -6 24 -11 31 -19 23 -6 -6 -16 -8 -23 -6 -7
3 -16 1 -20 -5 -8 -14 -55 -14 -55 -1 0 6 -5 10 -11 10 -5 0 -7 -4 -4 -10 7
-12 -5 -13 -23 -2 -12 8 -52 79 -52 94 0 4 7 5 15 2 8 -4 15 -13 15 -21z m875
16 c11 -17 -1 -21 -15 -4 -8 9 -8 15 -2 15 6 0 14 -5 17 -11z m383 -5 c12 -8
22 -21 22 -27 0 -9 -2 -9 -8 -1 -4 6 -17 14 -29 18 -13 4 -23 12 -23 17 0 13
12 11 38 -7z m-1463 -10 c8 -3 15 -1 15 5 0 6 5 11 11 11 18 0 -1 -40 -34 -71
-16 -16 -27 -33 -23 -37 4 -4 13 1 20 11 7 9 19 17 26 17 9 0 10 -3 1 -14 -9
-10 -8 -15 4 -20 10 -4 15 1 15 14 0 10 5 22 10 25 6 3 10 17 10 31 0 13 5 24
10 24 15 0 12 -22 -7 -50 -13 -20 -9 -18 18 8 38 35 69 41 93 16 21 -20 20
-24 -8 -73 -14 -25 -21 -52 -18 -67 6 -31 22 -42 22 -15 0 12 7 21 15 21 9 0
27 11 41 25 15 15 35 25 52 24 21 -1 22 -2 7 -6 -11 -3 -24 -10 -30 -15 -7 -8
-6 -9 4 -3 10 6 12 2 6 -14 -6 -19 -4 -20 20 -11 22 8 75 11 75 3 0 -2 -14
-16 -31 -33 -33 -31 -32 -38 1 -20 11 6 31 8 45 4 21 -5 23 -9 14 -26 -6 -11
-8 -22 -5 -25 7 -8 27 7 21 17 -7 11 22 33 34 26 5 -3 11 -1 13 6 3 9 6 9 11
1 10 -16 -67 -93 -93 -93 -24 0 -44 -40 -26 -52 19 -13 29 -9 16 7 -13 15 -13
15 33 19 6 1 15 6 19 11 4 6 8 2 8 -8 0 -10 5 -15 10 -12 6 3 10 1 10 -5 0 -8
-11 -9 -31 -5 -25 6 -30 4 -23 -6 14 -22 15 -47 2 -55 -8 -5 -9 -2 -5 10 5 14
3 17 -8 13 -8 -4 -17 -2 -20 3 -13 21 -45 8 -70 -27 -20 -31 -25 -34 -25 -17
0 12 7 27 15 34 8 7 15 21 15 31 0 11 4 19 10 19 5 0 14 17 19 38 6 20 18 48
27 62 15 22 14 22 -16 -5 -18 -16 -30 -24 -26 -17 17 30 -12 8 -38 -30 -20
-28 -31 -37 -34 -27 -3 8 -10 17 -16 21 -7 5 -4 13 9 23 16 13 17 16 3 11 -10
-3 -20 -1 -24 5 -3 6 -13 8 -21 5 -11 -4 -13 -1 -8 14 5 14 2 20 -9 20 -9 0
-16 -4 -16 -10 0 -5 -4 -10 -10 -10 -5 0 -10 9 -10 20 0 24 -18 27 -27 4 -3
-8 -12 -13 -21 -9 -13 5 -52 -34 -44 -43 2 -2 -5 -10 -15 -18 -10 -7 -14 -14
-10 -14 5 0 -1 -13 -12 -29 -22 -30 -64 -50 -54 -25 6 17 -9 18 -25 2 -7 -7
-12 -8 -12 -2 0 11 28 55 44 69 7 6 20 21 29 35 9 13 17 19 17 13 0 -7 -4 -15
-10 -18 -5 -3 -10 -15 -10 -26 0 -10 -4 -19 -10 -19 -5 0 -10 -5 -10 -12 0
-17 48 30 77 76 16 25 21 42 15 48 -7 7 -3 22 10 47 11 20 13 27 4 16 -9 -11
-30 -35 -48 -53 -25 -25 -34 -29 -36 -18 -2 9 -7 16 -12 16 -12 0 -85 -88 -85
-103 0 -7 -7 -18 -15 -25 -13 -12 -13 -13 0 -9 8 2 20 12 25 23 10 18 35 31
35 18 0 -6 -72 -105 -105 -146 -8 -9 -21 -30 -29 -47 -17 -31 -36 -49 -36 -32
0 5 6 16 13 23 42 46 93 138 76 138 -6 0 -8 8 -5 18 7 20 -63 -55 -106 -115
-18 -24 -40 -43 -50 -43 -19 0 -43 -42 -27 -48 18 -7 -42 -92 -65 -92 -5 0 3
14 19 30 18 18 25 34 19 39 -13 12 -74 -16 -74 -34 0 -21 14 -19 35 5 10 11
22 20 27 20 14 0 -53 -54 -69 -56 -9 -2 -12 3 -9 13 3 8 6 23 6 33 0 16 84 91
103 90 4 0 15 8 25 18 11 9 28 24 38 33 23 19 66 69 59 69 -3 0 11 21 30 46
19 25 35 51 35 58 0 8 9 24 19 38 11 14 25 47 32 74 7 27 25 68 40 92 16 24
29 50 29 59 0 9 5 13 15 9 8 -3 22 -9 30 -12z m720 -32 c-5 -13 -8 -14 -15 -3
-5 8 -3 19 3 26 14 15 22 1 12 -23z m265 18 c0 -5 -5 -10 -11 -10 -5 0 -7 5
-4 10 3 6 8 10 11 10 2 0 4 -4 4 -10z m1400 6 c0 -3 -4 -8 -10 -11 -5 -3 -10
-1 -10 4 0 6 5 11 10 11 6 0 10 -2 10 -4z m-714 -46 c103 -12 206 -33 271 -55
74 -24 189 -97 185 -117 -4 -26 44 -56 101 -63 64 -9 96 -24 52 -25 -22 0 -26
-3 -16 -9 8 -5 21 -7 30 -4 14 4 14 3 1 -6 -24 -17 -5 -23 47 -15 l48 8 -40
13 -40 13 64 -5 c35 -3 76 -5 90 -6 25 0 26 0 4 -9 -15 -6 -23 -18 -23 -33 0
-21 -4 -24 -36 -23 -44 1 -56 -20 -20 -34 l26 -10 -26 -42 c-32 -52 -37 -57
-33 -38 4 20 -18 60 -34 60 -7 0 -21 8 -32 17 -16 13 -17 15 -2 10 11 -4 17
-1 17 8 0 9 -10 15 -26 15 -14 0 -23 -4 -19 -10 8 -13 -7 -13 -42 1 -34 13
-160 20 -141 8 7 -5 25 -9 40 -9 15 0 30 -5 33 -11 5 -7 -8 -9 -41 -6 -48 4
-49 5 -47 35 3 29 1 30 -55 40 -50 9 -60 8 -77 -8 -14 -12 -26 -15 -41 -10
-15 6 -21 4 -21 -5 0 -8 3 -14 6 -13 23 2 34 -3 25 -12 -14 -14 -68 5 -59 20
3 5 -1 10 -9 10 -9 0 -16 2 -16 4 0 2 -3 11 -6 20 -3 9 -1 16 6 16 6 0 9 -4 5
-9 -3 -5 0 -13 6 -17 6 -3 15 -1 19 6 4 7 16 9 28 6 11 -4 23 -2 27 4 4 7 -2
14 -14 17 -12 3 -21 9 -21 14 0 5 -7 6 -15 3 -8 -4 -15 -1 -15 5 0 6 -9 11
-20 11 -12 0 -17 5 -14 14 4 10 -6 16 -35 21 -45 7 -54 28 -24 51 22 15 17 21
-22 27 -23 3 -30 9 -30 28 0 23 -3 24 -49 20 -35 -2 -46 0 -41 9 4 7 0 13 -11
16 -14 4 -19 14 -18 37 2 49 4 53 12 39 5 -7 44 -17 88 -22z m-747 -7 c-7 -20
-6 -28 3 -35 10 -6 8 -8 -5 -8 -26 0 -32 28 -12 50 24 26 26 25 14 -7z m196
17 c-3 -5 -1 -10 4 -10 6 0 11 -4 11 -9 0 -5 -9 -7 -20 -4 -16 4 -18 8 -9 19
13 16 23 19 14 4z m85 -26 c0 -2 -5 -3 -12 -1 -7 1 -12 -5 -13 -13 0 -8 -10
-16 -23 -16 -21 -1 -21 0 -7 16 9 10 13 24 9 35 -7 17 -6 17 19 0 15 -9 27
-19 27 -21z m1193 29 c-7 -2 -13 -18 -13 -33 0 -30 14 -48 24 -31 4 5 1 11 -6
13 -9 3 -8 9 5 22 16 17 17 16 27 -9 5 -14 10 -31 10 -37 0 -15 -71 -2 -81 14
-16 24 9 69 36 67 6 0 4 -3 -2 -6z m-1533 -39 c0 -8 -7 -14 -15 -14 -15 0 -21
21 -9 33 10 9 24 -2 24 -19z m540 16 c0 -5 -4 -10 -9 -10 -6 0 -13 5 -16 10
-3 6 1 10 9 10 9 0 16 -4 16 -10z m59 -36 c-13 -6 -29 -10 -36 -7 -20 8 -5 22
17 16 17 -4 19 -2 13 13 -6 17 -5 18 11 5 16 -14 16 -15 -5 -27z m-479 16 c0
-5 -7 -10 -16 -10 -8 0 -12 5 -9 10 3 6 10 10 16 10 5 0 9 -4 9 -10z m319 -16
c2 -2 -19 -4 -48 -4 -32 0 -50 4 -46 10 5 9 83 4 94 -6z m-939 -4 c0 -5 -2
-10 -4 -10 -3 0 -8 5 -11 10 -3 6 -1 10 4 10 6 0 11 -4 11 -10z m770 -15 c22
-23 22 -25 4 -31 -10 -3 -26 -8 -34 -11 -21 -8 -53 -3 -65 9 -7 7 -1 9 18 6
15 -3 27 -1 27 3 0 5 7 9 15 9 18 0 19 12 3 28 -7 7 -8 12 -2 12 6 0 21 -11
34 -25z m-1347 -5 c-3 -13 0 -20 8 -20 11 0 11 -2 2 -8 -7 -5 -14 -20 -15 -35
-1 -15 -5 -27 -8 -27 -3 0 -11 -9 -18 -21 -10 -16 -10 -24 -1 -35 9 -11 9 -17
-1 -29 -7 -8 -16 -12 -21 -9 -5 3 -8 -5 -6 -18 1 -17 -3 -23 -18 -23 -11 -1
-19 -6 -17 -13 1 -7 -10 -15 -25 -18 -23 -5 -28 -11 -28 -36 0 -26 -9 -37 -59
-71 -75 -51 -96 -86 -96 -157 0 -45 -5 -61 -28 -89 l-28 -33 -90 71 c-104 83
-156 151 -184 239 -11 34 -24 71 -30 82 -5 10 -17 54 -26 97 -8 43 -17 88 -20
100 -4 22 -3 23 70 16 51 -4 101 -1 158 10 178 34 448 49 448 25 0 -5 5 -8 10
-8 6 0 10 7 10 15 0 8 4 15 9 15 5 0 7 -9 4 -20z m544 14 c-3 -3 -12 -4 -19
-1 -8 3 -5 6 6 6 11 1 17 -2 13 -5z m-477 -27 c0 -24 -18 -57 -32 -57 -6 0 -8
11 -4 30 3 18 1 30 -5 30 -6 0 -8 4 -4 9 10 17 45 8 45 -12z m1370 -1 c0 -3
-4 -8 -10 -11 -5 -3 -10 -1 -10 4 0 6 5 11 10 11 6 0 10 -2 10 -4z m-644 -23
l39 -16 -34 -9 c-38 -10 -68 5 -42 21 11 7 10 10 -5 14 -10 2 -14 5 -8 6 6 0
29 -6 50 -16z m897 -3 c4 -4 -6 -7 -23 -8 -20 0 -30 4 -30 14 0 11 6 13 23 9
12 -4 26 -11 30 -15z m52 9 c11 -17 2 -18 -19 -3 -17 12 -17 14 -4 14 9 0 20
-5 23 -11z m-365 -14 c-10 -12 -9 -15 4 -15 10 0 15 -4 12 -9 -3 -5 -17 -8
-30 -8 -18 0 -23 4 -18 16 6 17 22 31 36 31 5 0 3 -7 -4 -15z m1286 7 c15 -10
11 -55 -6 -60 -9 -3 -11 3 -8 22 3 14 1 26 -3 26 -5 0 -9 5 -9 10 0 12 10 13
26 2z m-1948 -21 c3 -8 -1 -12 -9 -9 -7 2 -15 10 -17 17 -3 8 1 12 9 9 7 -2
15 -10 17 -17z m186 2 c4 -8 2 -22 -3 -30 -7 -14 -10 -13 -21 8 -7 13 -17 27
-23 30 -5 4 2 7 16 7 14 0 28 -7 31 -15z m419 -23 c21 -23 23 -30 11 -30 -9 0
-18 9 -21 20 -4 16 -11 18 -31 13 -23 -5 -24 -4 -11 10 19 22 22 21 52 -13z
m277 20 c0 -5 -2 -10 -4 -10 -3 0 -8 5 -11 10 -3 6 -1 10 4 10 6 0 11 -4 11
-10z m1029 -37 c-2 -46 -2 -47 -8 -13 -4 19 -5 41 -3 48 8 24 12 11 11 -35z
m-1410 -13 c0 -10 -3 -8 -9 5 -12 27 -12 43 0 25 5 -8 9 -22 9 -30z m516 20
c3 -6 -1 -7 -9 -4 -18 7 -21 14 -7 14 6 0 13 -4 16 -10z m975 0 c0 -5 -5 -10
-11 -10 -5 0 -7 5 -4 10 3 6 8 10 11 10 2 0 4 -4 4 -10z m-2670 -4 c0 -11 -19
-15 -25 -6 -3 5 1 10 9 10 9 0 16 -2 16 -4z m1350 -6 c0 -5 -7 -10 -16 -10 -8
0 -12 5 -9 10 3 6 10 10 16 10 5 0 9 -4 9 -10z m55 -10 c3 -5 1 -10 -4 -10 -6
0 -11 5 -11 10 0 6 2 10 4 10 3 0 8 -4 11 -10z m194 -16 c14 -12 -19 -1 -35
12 -18 14 -18 14 6 3 14 -6 27 -13 29 -15z m1063 -12 c-6 -2 -12 -10 -12 -18
0 -8 -7 -14 -15 -14 -9 0 -15 9 -15 23 0 32 9 38 34 25 13 -7 16 -13 8 -16z
m-1502 6 c0 -4 -4 -8 -9 -8 -5 0 -15 -2 -23 -5 -7 -3 -22 1 -33 9 -19 14 -17
15 23 13 23 -1 42 -5 42 -9z m528 1 c-2 -6 -8 -10 -13 -10 -5 0 -11 4 -13 10
-2 6 4 11 13 11 9 0 15 -5 13 -11z m-1698 -2 c0 -2 -8 -11 -18 -20 -16 -15
-18 -15 -18 3 0 13 7 20 18 20 10 0 18 -2 18 -3z m725 -7 c-3 -5 -13 -10 -21
-10 -8 0 -12 5 -9 10 3 6 13 10 21 10 8 0 12 -4 9 -10z m548 3 c-7 -2 -21 -2
-30 0 -10 3 -4 5 12 5 17 0 24 -2 18 -5z m116 -14 c-16 -10 -23 -4 -14 10 3 6
11 8 17 5 6 -4 5 -9 -3 -15z m188 8 c5 -6 6 -85 0 -94 -4 -7 -50 -40 -102 -74
l-95 -62 1 -41 c2 -32 3 -35 6 -12 5 29 37 65 59 66 6 0 17 7 24 15 9 11 22
14 42 10 17 -4 28 -2 28 4 0 6 -5 11 -11 11 -8 0 -8 5 1 15 7 8 16 15 21 15 8
0 3 -109 -7 -159 -8 -39 -17 -15 -16 44 0 54 -1 55 -28 55 -33 0 -49 -16 -23
-23 10 -2 0 -7 -23 -12 l-42 -7 -7 -55 c-4 -30 -4 -57 -1 -61 9 -8 82 -3 110
8 22 8 23 6 21 -28 -1 -20 -3 -53 -4 -73 -1 -33 -3 -35 -28 -32 -16 3 -39 0
-53 -6 l-25 -10 25 0 c19 -1 21 -4 12 -13 -7 -7 -12 -20 -12 -30 0 -10 -4 -18
-10 -18 -5 0 -10 9 -10 21 0 16 -4 19 -20 14 -11 -4 -20 -2 -20 4 0 6 6 11 13
12 10 0 10 2 0 6 -18 7 -16 23 1 23 8 0 18 5 22 12 5 8 0 9 -15 5 -15 -3 -21
-1 -18 6 3 7 10 11 16 9 6 -1 11 5 11 13 0 8 -7 15 -15 15 -8 0 -15 9 -15 20
0 11 -4 20 -10 20 -14 0 -12 34 2 48 10 10 10 14 1 20 -7 5 -13 29 -14 54 -2
43 -5 48 -33 58 -17 6 -49 19 -71 30 -22 10 -48 20 -57 24 -35 11 -18 32 39
50 32 10 103 40 158 67 81 40 106 48 135 43 19 -3 36 -7 37 -7z m-1307 -30
c12 -4 12 -6 -2 -6 -17 -1 -38 -29 -38 -51 0 -6 5 -8 12 -4 7 4 8 3 4 -4 -4
-7 -16 -12 -26 -12 -17 0 -18 3 -8 33 6 17 16 35 22 39 6 4 7 8 3 8 -5 0 -5 5
-1 11 4 7 9 7 13 2 3 -6 13 -13 21 -16z m390 7 c0 -8 -4 -12 -10 -9 -6 3 -7
-1 -4 -9 4 -10 1 -16 -9 -16 -20 0 -29 14 -21 34 8 21 44 21 44 0z m1000 1 c0
-8 -7 -15 -15 -15 -16 0 -20 12 -8 23 11 12 23 8 23 -8z m-1330 -14 c-11 -21
-30 -37 -30 -25 0 8 30 44 37 44 2 0 -1 -9 -7 -19z m1440 -1 c0 -5 -5 -10 -11
-10 -5 0 -7 5 -4 10 3 6 8 10 11 10 2 0 4 -4 4 -10z m-590 -15 c10 -12 10 -15
-4 -15 -9 0 -16 7 -16 15 0 8 2 15 4 15 2 0 9 -7 16 -15z m670 -15 c19 -17 40
-30 48 -30 19 0 102 -50 102 -61 0 -5 -2 -9 -4 -9 -10 0 -176 103 -187 116
-20 24 5 14 41 -16z m-180 16 c0 -3 -4 -8 -10 -11 -5 -3 -10 -1 -10 4 0 6 5
11 10 11 6 0 10 -2 10 -4z m-561 -22 c17 -4 28 -10 25 -15 -8 -14 -38 -11 -60
6 -21 16 -12 18 35 9z m613 -26 c-9 -9 -12 -7 -12 12 0 19 3 21 12 12 9 -9 9
-15 0 -24z m-68 -21 c-7 -20 -30 -23 -37 -4 -2 6 0 20 5 31 9 16 12 16 24 4 8
-8 12 -22 8 -31z m46 34 c0 -6 -4 -13 -10 -16 -5 -3 -10 1 -10 9 0 9 5 16 10
16 6 0 10 -4 10 -9z m60 -11 c0 -5 -5 -10 -11 -10 -5 0 -7 5 -4 10 3 6 8 10
11 10 2 0 4 -4 4 -10z m-1501 -37 c-28 -47 -29 -48 -29 -37 0 12 38 74 46 74
3 0 -5 -17 -17 -37z m1595 11 c3 -8 17 -14 30 -14 30 0 56 -34 56 -72 0 -31
-16 -37 -34 -13 -16 22 -79 30 -97 13 -12 -13 -14 -7 -14 43 0 41 3 55 13 52
6 -3 12 0 12 6 0 14 27 3 34 -15z m352 -2 c1 -7 0 -8 -3 -2 -6 12 -43 13 -61
2 -7 -5 -16 -32 -21 -61 -8 -52 -16 -69 -27 -59 -7 8 22 107 37 125 15 17 71
13 75 -5z m-1048 -20 c8 -7 12 -18 9 -26 -6 -15 -124 -37 -189 -35 -42 2 -42
2 -9 8 19 3 36 11 38 18 3 8 -7 9 -38 2 -32 -8 -44 -7 -50 3 -5 7 -9 8 -9 3 0
-6 5 -16 12 -23 9 -9 8 -12 -4 -12 -14 0 -54 47 -46 55 2 1 32 7 68 11 97 13
203 11 218 -4z m582 3 c0 -8 -4 -15 -10 -15 -5 0 -10 7 -10 15 0 8 5 15 10 15
6 0 10 -7 10 -15z m443 -1 c11 -11 -3 -24 -18 -18 -8 4 -12 10 -9 15 6 11 18
12 27 3z m432 -4 c3 -5 2 -10 -4 -10 -5 0 -13 5 -16 10 -3 6 -2 10 4 10 5 0
13 -4 16 -10z m-1000 -10 c3 -5 1 -10 -4 -10 -6 0 -11 5 -11 10 0 6 2 10 4 10
3 0 8 -4 11 -10z m89 -6 c14 -37 6 -63 -26 -78 -44 -22 -47 -21 -41 22 9 58
52 95 67 56z m-1220 -8 c-21 -15 -30 -14 -19 3 3 6 14 11 23 11 13 0 13 -2 -4
-14z m1283 -5 c2 -27 -25 -49 -33 -27 -8 21 2 46 19 46 7 0 13 -9 14 -19z
m268 10 c3 -5 1 -12 -5 -16 -5 -3 -10 1 -10 9 0 18 6 21 15 7z m40 -20 c3 -5
0 -13 -6 -16 -5 -4 -8 -13 -5 -21 3 -7 1 -16 -4 -19 -6 -4 -10 0 -10 8 0 18
-24 28 -47 21 -10 -4 -4 3 12 14 33 23 51 27 60 13z m-1932 -29 c-28 -43 -41
-64 -63 -104 -13 -25 -25 -35 -35 -32 -20 8 -5 34 59 108 53 61 68 72 39 28z
m2011 22 c8 -3 12 -12 10 -19 -7 -17 26 -27 79 -25 58 4 82 1 74 -7 -11 -10
23 -42 38 -37 16 6 35 -25 27 -45 -2 -7 0 -16 6 -20 20 -12 -5 -32 -41 -34
-20 -1 -37 -7 -37 -13 0 -7 -9 -14 -19 -17 -13 -3 -22 -17 -26 -41 -4 -21 -13
-36 -21 -36 -8 0 -14 5 -14 10 0 6 -7 10 -15 10 -8 0 -15 7 -15 15 0 20 -46
30 -65 15 -12 -10 -15 -10 -15 3 0 8 6 17 13 20 9 3 9 7 1 18 -15 18 -8 84 12
114 14 21 14 24 -3 34 -15 9 -16 12 -4 20 12 8 12 12 2 25 -14 17 -11 19 13
10z m83 -10 c-3 -3 -12 -4 -19 -1 -8 3 -5 6 6 6 11 1 17 -2 13 -5z m173 -4 c0
-5 -15 -10 -32 -9 -31 1 -32 1 -8 9 35 11 40 11 40 0z m-1607 -17 c-4 -11 -8
-13 -11 -5 -2 7 -9 9 -14 6 -7 -4 -8 -2 -4 4 12 19 36 15 29 -5z m1672 0 c9
-9 21 -27 26 -41 13 -33 -4 -45 -51 -36 -19 4 -41 7 -47 7 -7 0 -13 10 -13 21
0 13 -3 16 -8 10 -4 -7 -16 -8 -27 -4 -18 6 -17 8 11 23 17 9 34 13 37 10 4
-3 9 2 13 11 8 21 38 21 59 -1z m45 7 c0 -5 -2 -10 -4 -10 -3 0 -8 5 -11 10
-3 6 -1 10 4 10 6 0 11 -4 11 -10z m-2006 -15 c3 -9 0 -15 -9 -15 -16 0 -27
14 -18 24 10 10 21 7 27 -9z m349 -17 c-10 -56 -22 -78 -40 -78 -33 0 -46 16
-39 46 7 28 8 28 22 10 14 -19 14 -19 14 1 0 22 24 53 40 53 5 0 7 -15 3 -32z
m435 25 c-10 -2 -26 -2 -35 0 -10 3 -2 5 17 5 19 0 27 -2 18 -5z m-1228 -22
c0 -7 -50 -75 -67 -91 -3 -3 6 19 21 48 23 46 46 68 46 43z m372 -25 c16 -3
34 -3 39 0 5 3 9 0 9 -5 0 -6 10 -9 23 -7 33 5 57 -15 57 -48 l0 -29 -23 21
c-31 29 -72 28 -133 -3 -27 -14 -50 -25 -51 -25 -1 0 4 14 10 30 6 17 14 30
18 30 4 0 5 9 2 19 -3 13 -10 18 -21 14 -10 -4 -13 -2 -8 5 4 7 14 12 22 12 8
0 15 6 15 13 1 6 3 5 6 -4 2 -9 18 -19 35 -23z m523 24 c3 -6 -1 -7 -9 -4 -18
7 -21 14 -7 14 6 0 13 -4 16 -10z m234 3 c-11 -2 -15 -11 -12 -24 6 -22 23
-26 23 -5 0 16 71 35 107 28 18 -3 22 -12 25 -55 4 -68 -1 -117 -13 -117 -5 0
-9 10 -9 22 0 12 -10 32 -22 45 -12 13 -16 23 -10 23 9 0 9 5 0 20 -7 11 -17
20 -23 20 -14 0 -37 -39 -30 -50 4 -6 -1 -10 -10 -10 -10 0 -13 5 -9 12 5 8 0
9 -14 6 -12 -4 -22 -2 -22 3 0 4 -14 12 -32 17 -17 4 -33 13 -34 20 -1 7 0 8
3 2 3 -8 9 -7 19 1 27 22 14 30 -38 23 -66 -8 -58 5 9 15 56 8 115 11 92 4z
m649 -25 c-4 -46 -28 -49 -28 -4 0 26 4 36 16 36 11 0 14 -8 12 -32z m42 2 c0
-16 -4 -30 -10 -30 -5 0 -10 14 -10 30 0 17 5 30 10 30 6 0 10 -13 10 -30z
m-964 5 c14 -13 14 -16 0 -21 -25 -10 -20 -36 7 -32 14 2 21 9 21 21 -1 10 3
16 10 14 9 -3 12 -27 7 -59 0 -5 -18 -8 -40 -8 l-39 0 0 42 c-1 60 7 70 34 43z
m885 -71 c5 -6 30 -9 64 -6 72 6 71 -11 -2 -28 -42 -9 -58 -9 -61 -1 -2 6 -8
9 -13 5 -35 -21 82 -35 122 -14 12 7 19 7 19 1 0 -17 -32 -27 -92 -30 -64 -2
-69 4 -63 74 2 22 5 51 6 65 1 15 4 9 6 -15 3 -22 9 -45 14 -51z m-1924 16
c-21 -19 -46 -48 -54 -65 -17 -32 -37 -55 -49 -55 -4 0 3 11 16 24 12 14 23
37 23 51 0 14 4 28 9 31 5 3 13 17 19 31 5 13 13 22 18 19 5 -3 14 1 21 9 9
11 15 11 24 2 10 -9 5 -19 -27 -47z m1620 18 c-4 -59 -27 -63 -27 -4 0 34 4
46 15 46 11 0 14 -10 12 -42z m233 7 c-13 -14 -26 -23 -28 -20 -3 3 5 16 18
30 13 14 26 23 28 20 3 -3 -5 -16 -18 -30z m-283 -27 c-2 -13 -4 -5 -4 17 -1
22 1 32 4 23 2 -10 2 -28 0 -40z m180 30 c-3 -8 -6 -5 -6 6 -1 11 2 17 5 13 3
-3 4 -12 1 -19z m467 -40 c-9 -84 -14 -86 -14 -5 0 39 4 67 10 67 7 0 8 -22 4
-62z m-1377 -41 c-8 -64 -14 -87 -23 -83 -7 3 -15 0 -18 -7 -3 -9 -8 -8 -15 3
-14 20 -14 26 4 44 8 8 15 17 15 20 0 3 -7 6 -15 6 -8 0 -15 3 -15 6 0 5 74
103 76 100 0 0 -4 -41 -9 -89z m886 63 c-3 -11 -9 -18 -13 -15 -5 3 -6 14 -3
25 3 11 9 18 13 15 5 -3 6 -14 3 -25z m77 10 c0 -11 -4 -20 -10 -20 -5 0 -10
2 -10 4 0 2 -3 11 -6 20 -4 11 -1 16 10 16 9 0 16 -8 16 -20z m-632 -2 c-30
-10 -36 -23 -15 -31 7 -4 6 -6 -5 -6 -9 -1 -19 -7 -21 -13 -3 -7 -6 1 -6 19
-1 33 9 41 49 41 l25 0 -27 -10z m882 -20 c0 -5 -9 -8 -20 -8 -18 0 -19 3 -8
20 9 14 14 16 20 7 4 -7 8 -15 8 -19z m64 16 c3 -8 2 -12 -4 -9 -6 3 -10 10
-10 16 0 14 7 11 14 -7z m-2079 -23 c-14 -28 -35 -49 -35 -36 0 18 34 64 48
65 1 0 -4 -13 -13 -29z m196 -8 c8 -9 9 -14 3 -10 -7 4 -18 -1 -25 -10 -12
-15 -12 -16 2 -11 26 10 13 -21 -26 -67 l-34 -40 4 49 c4 42 3 47 -10 36 -9
-7 -18 -10 -22 -6 -3 3 -1 6 6 6 8 0 11 7 7 15 -4 13 -2 14 14 5 25 -13 38 -6
50 26 11 29 13 29 31 7z m1014 -3 c3 -6 -1 -7 -9 -4 -18 7 -21 14 -7 14 6 0
13 -4 16 -10z m625 3 c0 -5 -5 -15 -10 -23 -8 -12 -10 -11 -10 8 0 12 5 22 10
22 6 0 10 -3 10 -7z m-985 -12 c3 -5 1 -12 -5 -16 -5 -3 -10 1 -10 9 0 18 6
21 15 7z m895 -10 c0 -10 -7 -22 -16 -25 -23 -9 -24 -8 -24 19 0 18 5 25 20
25 13 0 20 -7 20 -19z m27 -3 c-3 -8 -6 -5 -6 6 -1 11 2 17 5 13 3 -3 4 -12 1
-19z m-1487 3 c0 -5 -7 -12 -16 -15 -8 -3 -13 -10 -10 -14 3 -5 -1 -18 -9 -28
-15 -18 -15 -18 -9 1 10 34 27 65 36 65 4 0 8 -4 8 -9z m297 -6 c0 -8 -4 -12
-9 -9 -5 3 -6 10 -3 15 9 13 12 11 12 -6z m1093 -5 c0 -21 -15 -27 -25 -10 -7
12 2 30 16 30 5 0 9 -9 9 -20z m-1254 -25 c-7 -18 -26 -20 -26 -2 0 18 24 41
28 27 2 -6 1 -17 -2 -25z m-633 5 c-3 -11 -7 -20 -9 -20 -2 0 -4 9 -4 20 0 11
4 20 9 20 5 0 7 -9 4 -20z m1455 -5 c-2 -19 -8 -25 -25 -25 -41 0 -24 33 24
49 2 1 2 -10 1 -24z m-783 -7 c-6 -21 -6 -21 6 -7 8 9 29 19 47 21 27 4 33 1
38 -19 4 -13 14 -23 24 -23 28 0 50 -11 50 -25 0 -21 -25 -62 -36 -58 -5 2
-10 -5 -11 -14 -1 -14 6 -18 34 -18 20 0 38 -6 40 -12 3 -7 -3 -13 -11 -13 -9
0 -19 -7 -22 -15 -9 -22 -23 -18 -17 5 4 14 0 20 -12 20 -9 0 -19 8 -22 18 -2
10 -13 19 -24 19 -15 1 -19 -3 -15 -13 4 -10 1 -14 -6 -12 -7 3 -13 11 -13 19
0 8 -9 14 -20 15 -57 3 -65 5 -65 15 0 6 6 9 14 6 9 -4 22 5 32 21 10 15 24
33 31 40 15 16 17 32 4 32 -5 0 -19 -16 -31 -35 -12 -19 -25 -33 -30 -30 -4 2
-15 -4 -25 -15 -23 -25 -33 -18 -27 19 4 29 19 36 34 16 5 -6 8 -6 8 2 0 6 -5
15 -11 18 -7 5 -4 14 7 26 23 26 37 24 29 -3z m512 16 c-3 -3 -12 -4 -19 -1
-8 3 -5 6 6 6 11 1 17 -2 13 -5z m73 -7 c0 -20 -9 -25 -30 -20 -11 3 -16 11
-13 19 7 18 43 18 43 1z m130 -7 c0 -11 -7 -20 -15 -20 -15 0 -21 21 -8 33 12
13 23 7 23 -13z m133 14 c11 -11 -5 -34 -24 -34 -12 0 -19 7 -19 20 0 19 28
28 43 14z m57 -9 c0 -15 -26 -32 -36 -23 -2 3 -2 13 2 22 8 20 34 21 34 1z
m-247 -15 c-3 -11 -9 -20 -14 -20 -5 0 -9 9 -9 20 0 11 6 20 14 20 9 0 12 -7
9 -20z m677 0 c0 -5 -4 -10 -10 -10 -5 0 -10 5 -10 10 0 6 5 10 10 10 6 0 10
-4 10 -10z m41 -13 c-13 -13 -26 -3 -16 12 3 6 11 8 17 5 6 -4 6 -10 -1 -17z
m-922 4 c10 -7 12 -23 6 -70 l-7 -61 -29 17 c-32 19 -40 40 -9 23 17 -9 22 -7
31 14 17 36 4 80 -21 73 -11 -3 -20 -1 -20 4 0 11 31 11 49 0z m796 0 c10 -17
-12 -21 -25 -6 -10 12 -10 15 3 15 9 0 18 -4 22 -9z m49 -6 c3 -9 -1 -18 -10
-22 -19 -7 -26 0 -18 21 8 20 20 21 28 1z m351 -5 c17 0 46 -40 39 -52 -4 -6
12 -7 39 -3 44 7 45 7 40 -19 -4 -18 -1 -26 8 -26 8 0 20 -9 26 -20 11 -16 10
-21 -6 -30 -11 -5 -28 -10 -38 -10 -11 0 -24 -5 -29 -10 -6 -6 -33 -12 -61
-13 -54 -4 -56 -1 -37 47 5 13 4 17 -3 13 -30 -19 -11 74 20 94 12 9 -30 22
-43 14 -6 -4 -6 -15 1 -32 9 -25 9 -26 -15 -9 -25 16 -44 7 -31 -14 3 -6 -1
-18 -10 -27 -14 -14 -18 -14 -26 -2 -13 22 -11 57 7 84 12 19 20 22 38 16 14
-6 28 -4 41 5 12 9 21 11 23 4 2 -5 10 -10 17 -10z m-1273 -42 c-9 -9 -12 -7
-12 12 0 19 3 21 12 12 9 -9 9 -15 0 -24z m181 16 c21 -8 21 -21 1 -81 -15
-43 -15 -48 0 -58 9 -7 13 -14 10 -18 -9 -8 63 -62 88 -65 13 -2 34 -4 48 -6
14 -1 26 -10 28 -19 4 -19 22 -24 22 -6 0 5 6 7 13 4 6 -4 4 0 -5 8 -24 19
-23 30 2 17 15 -8 18 -8 14 3 -3 9 6 14 32 15 34 3 35 2 22 -17 -15 -21 -127
-111 -138 -111 -3 0 -16 -9 -27 -20 -18 -17 -23 -17 -33 -5 -7 8 -8 15 -3 15
20 0 61 51 56 69 -4 17 -7 18 -31 5 -15 -8 -31 -14 -35 -14 -5 0 -17 -10 -27
-22 -17 -22 -19 -22 -26 -4 -4 10 -3 21 3 25 5 3 12 14 16 24 5 13 1 17 -18
17 -19 0 -25 5 -25 21 0 14 -5 19 -14 16 -9 -4 -17 2 -21 14 -10 31 -28 10
-22 -26 7 -42 -4 -59 -33 -50 -20 6 -22 4 -18 -19 3 -14 2 -26 -3 -26 -18 0
-58 24 -53 31 3 5 1 9 -5 9 -5 0 -11 -4 -13 -9 -1 -4 -14 -12 -26 -16 -21 -6
-23 -5 -13 13 15 28 15 29 -15 36 -25 7 -25 8 -9 26 9 10 14 23 11 29 -8 12
24 20 77 18 22 -1 44 5 53 14 14 14 12 18 -13 35 -15 10 -45 19 -65 19 -21 0
-39 4 -40 9 -7 22 79 7 135 -23 63 -34 67 -35 67 -21 0 5 -13 16 -29 25 -22
11 -28 20 -24 36 4 13 8 16 13 9 4 -6 19 -12 35 -13 23 -2 29 3 36 28 10 36 3
45 -39 48 -18 1 -32 5 -32 9 0 8 32 17 45 12 6 -2 18 -7 28 -10z m940 7 c4 -1
7 -5 7 -10 0 -13 -42 -22 -55 -11 -15 12 -68 6 -73 -9 -2 -6 3 -14 12 -17 19
-7 21 -24 4 -24 -7 0 -18 11 -24 24 -22 46 14 59 129 47z m454 -18 c-9 -9 -19
-14 -23 -11 -10 10 6 28 24 28 15 0 15 -1 -1 -17z m-1337 -63 c0 -35 -4 -60
-11 -60 -6 0 -8 21 -5 58 6 67 5 62 11 62 3 0 5 -27 5 -60z m260 40 c0 -5 -12
-10 -27 -12 -24 -3 -29 -9 -35 -47 -9 -52 -6 -49 -41 -55 -32 -6 -31 -6 -12
30 8 16 15 40 15 53 0 21 -3 23 -31 17 -17 -3 -42 -6 -55 -6 -18 0 -24 -5 -24
-22 1 -32 23 -58 49 -58 11 0 21 -4 21 -9 0 -4 -11 -6 -25 -3 -15 2 -25 0 -25
-7 0 -18 -29 -12 -40 8 -5 11 -10 36 -10 56 0 41 19 53 107 61 l53 5 2 -38 1
-38 4 38 c4 33 7 38 24 34 10 -3 22 -1 25 4 6 11 24 2 24 -11z m384 5 c-7 -17
-59 -21 -69 -5 -3 5 0 7 9 4 8 -3 23 -1 33 5 25 15 33 13 27 -4z m70 9 c27
-10 18 -25 -11 -18 -26 7 -27 6 -13 -11 14 -17 14 -17 -7 -4 -26 16 -29 25
-10 32 18 8 23 8 41 1z m-1018 -36 c-3 -13 -5 -27 -5 -31 -1 -5 -5 -6 -10 -2
-5 3 -12 1 -16 -5 -4 -6 -12 -7 -18 -4 -7 4 -9 4 -5 -1 9 -9 -9 -35 -23 -35
-18 0 -8 32 16 54 14 13 25 28 25 35 0 6 9 11 20 11 15 0 19 -5 16 -22z m234
12 c0 -5 -5 -10 -11 -10 -5 0 -7 5 -4 10 3 6 8 10 11 10 2 0 4 -4 4 -10z
m-1189 -36 c-11 -15 -21 -24 -21 -20 0 12 33 57 37 52 3 -3 -4 -17 -16 -32z
m2239 21 c0 -8 -4 -15 -10 -15 -5 0 -10 7 -10 15 0 8 5 15 10 15 6 0 10 -7 10
-15z m-236 -19 c-3 -9 -10 -16 -15 -16 -14 0 -11 28 4 33 16 6 19 3 11 -17z
m-1514 5 c0 -5 24 -15 53 -21 64 -15 92 -29 60 -30 -12 0 -23 -5 -25 -11 -2
-7 -17 -4 -41 10 -33 18 -37 19 -37 4 0 -24 -16 -4 -24 30 -4 16 -2 27 4 27 5
0 10 -4 10 -9z m860 -1 c0 -5 -5 -10 -11 -10 -5 0 -7 5 -4 10 3 6 8 10 11 10
2 0 4 -4 4 -10z m40 0 c0 -5 -5 -10 -11 -10 -5 0 -7 5 -4 10 3 6 8 10 11 10 2
0 4 -4 4 -10z m525 -39 c17 -27 24 -31 52 -27 18 3 35 0 38 -5 4 -5 -1 -9 -9
-9 -9 0 -16 -4 -16 -10 0 -10 14 -14 39 -10 13 1 13 -1 2 -14 -8 -9 -23 -16
-35 -16 -11 0 -16 -4 -11 -8 15 -11 17 -55 3 -64 -22 -13 -29 -9 -24 17 3 14
1 25 -4 25 -17 0 -40 -13 -40 -22 0 -6 6 -5 15 2 16 13 20 3 7 -18 -6 -9 -21
-11 -53 -5 -24 4 -47 6 -52 5 -4 -1 -2 7 5 18 11 17 10 22 -2 30 -22 15 -65 8
-65 -10 0 -8 6 -14 13 -12 6 1 12 -2 12 -7 0 -17 -33 -36 -57 -33 -13 2 -31
-2 -39 -8 -11 -10 -14 -9 -14 4 0 13 -5 16 -22 11 -30 -9 -30 -10 -55 1 -17 7
-20 13 -13 24 9 13 11 13 19 0 8 -12 11 -11 17 5 14 45 35 85 44 85 17 0 19
-17 9 -54 -13 -46 -7 -55 11 -18 23 44 51 82 61 82 10 0 -18 -66 -40 -93 -8
-9 -11 -20 -7 -24 9 -9 46 33 46 52 0 19 42 95 52 95 4 0 3 -11 -2 -25 -11
-29 -3 -33 15 -8 8 11 17 13 26 7 8 -5 22 -7 32 -5 15 2 18 -2 12 -21 -6 -20
-5 -21 8 -8 20 20 35 71 16 53 -19 -19 -28 -16 -22 7 6 24 -12 27 -21 3 -6
-15 -8 -14 -20 2 -8 11 -20 16 -29 12 -11 -4 -14 -2 -11 8 6 16 28 23 64 20
16 -1 32 -13 45 -34z m-140 19 c3 -5 2 -16 -2 -24 -11 -20 -38 -3 -30 18 7 18
23 21 32 6z m-1330 -20 c-4 -11 -2 -20 4 -20 6 0 11 -5 11 -12 0 -6 -8 -4 -19
6 -11 10 -17 24 -14 32 8 22 25 16 18 -6z m1215 10 c0 -5 -5 -10 -11 -10 -5 0
-7 5 -4 10 3 6 8 10 11 10 2 0 4 -4 4 -10z m-720 -20 c0 -5 -4 -10 -10 -10 -5
0 -10 5 -10 10 0 6 5 10 10 10 6 0 10 -4 10 -10z m-233 -22 c13 -12 23 -26 23
-32 0 -6 -7 0 -16 12 -8 12 -24 22 -35 22 -10 0 -19 5 -19 10 0 17 22 11 47
-12z m953 7 c-7 -9 -15 -13 -19 -10 -3 3 1 10 9 15 21 14 24 12 10 -5z m-822
-41 c-21 -36 -38 -52 -38 -35 0 5 5 13 10 16 6 4 10 12 9 18 -4 21 12 46 26
41 11 -4 9 -13 -7 -40z m-413 -12 c9 -36 -2 -39 -31 -7 -30 32 -27 63 5 43 11
-7 23 -23 26 -36z m230 38 c3 -5 1 -10 -4 -10 -6 0 -11 5 -11 10 0 6 2 10 4
10 3 0 8 -4 11 -10z m970 -25 c0 -12 -6 -19 -14 -17 -7 1 -18 -2 -25 -7 -17
-14 -39 3 -32 26 9 28 71 26 71 -2z m539 -17 c25 -25 27 -28 9 -28 -11 0 -48
-9 -82 -20 -58 -20 -63 -20 -79 -3 -16 16 -16 17 1 10 11 -4 20 -1 23 8 4 8
14 15 24 15 10 0 23 12 30 29 14 34 29 32 74 -11z m-1639 22 c3 -5 1 -10 -4
-10 -6 0 -11 5 -11 10 0 6 2 10 4 10 3 0 8 -4 11 -10z m-325 -16 c0 -8 -5 -12
-10 -9 -6 4 -8 11 -5 16 9 14 15 11 15 -7z m2040 7 c7 -2 -23 -21 -32 -21 -5
0 -8 6 -8 14 0 8 8 13 18 11 9 -2 19 -4 22 -4z m-170 -5 c0 -11 -19 -15 -25
-6 -3 5 1 10 9 10 9 0 16 -2 16 -4z m-1740 -26 c0 -5 -7 -10 -16 -10 -8 0 -12
5 -9 10 3 6 10 10 16 10 5 0 9 -4 9 -10z m209 -30 c5 0 13 5 16 10 3 6 13 10
21 10 10 0 8 -6 -8 -22 -21 -21 -21 -22 -2 -29 18 -7 18 -8 -3 -8 -12 -1 -27
-3 -35 -6 -7 -2 -22 7 -32 22 -11 14 -15 23 -9 20 6 -4 14 5 18 21 7 27 7 27
16 5 4 -13 13 -23 18 -23z m72 17 c-10 -9 -11 -8 -5 6 3 10 9 15 12 12 3 -3 0
-11 -7 -18z m119 2 c0 -5 -4 -9 -10 -9 -5 0 -10 7 -10 16 0 8 5 12 10 9 6 -3
10 -10 10 -16z m-12 -22 c8 -9 6 -16 -6 -24 -14 -8 -23 -6 -40 7 l-22 19 22 4
c13 2 26 5 29 6 4 0 11 -5 17 -12z m-313 -7 c3 -5 1 -10 -4 -10 -6 0 -11 5
-11 10 0 6 2 10 4 10 3 0 8 -4 11 -10z m235 0 c0 -5 -5 -10 -11 -10 -5 0 -7 5
-4 10 3 6 8 10 11 10 2 0 4 -4 4 -10z m137 -22 c-3 -8 -6 -5 -6 6 -1 11 2 17
5 13 3 -3 4 -12 1 -19z m153 -2 c0 -8 -4 -18 -10 -21 -5 -3 -10 3 -10 14 0 12
5 21 10 21 6 0 10 -6 10 -14z m-232 -56 c3 -9 -4 -10 -29 -5 -47 10 -56 17
-33 25 23 9 56 -2 62 -20z m382 -25 c22 -26 15 -39 -20 -36 -19 1 -39 6 -45
11 -5 4 -45 7 -88 5 -52 -1 -76 2 -74 9 2 6 15 12 30 14 14 2 31 9 37 17 7 9
23 12 44 8 20 -3 36 -1 40 6 7 11 57 -11 76 -34z m540 25 c0 -5 -2 -10 -4 -10
-3 0 -8 5 -11 10 -3 6 -1 10 4 10 6 0 11 -4 11 -10z m50 0 c0 -13 -11 -13 -30
0 -12 8 -11 10 8 10 12 0 22 -4 22 -10z m-327 -55 c-3 -9 -8 -14 -10 -11 -3 3
-2 9 2 15 9 16 15 13 8 -4z m-88 -5 c-3 -5 -11 -10 -16 -10 -6 0 -7 5 -4 10 3
6 11 10 16 10 6 0 7 -4 4 -10z"/>
<path d="M794 2967 c-83 -57 -153 -162 -162 -244 -7 -62 3 -86 58 -143 l51
-53 79 6 c89 6 155 35 212 94 l33 34 -23 20 c-13 10 -43 23 -65 29 -62 15
-103 39 -116 66 -17 39 -13 111 10 155 38 75 3 91 -77 36z m56 -24 c-1 -16 -7
-41 -14 -58 -34 -81 32 -186 127 -200 58 -9 69 -31 30 -62 -66 -53 -160 -75
-227 -53 -51 16 -96 84 -96 142 0 69 57 179 117 222 26 20 51 36 56 36 4 0 7
-12 7 -27z"/>
<path d="M1110 2611 c0 -5 7 -14 15 -21 16 -14 18 -10 9 14 -6 17 -24 22 -24
7z"/>
<path d="M2980 3006 c0 -8 -6 -17 -12 -20 -7 -3 4 -4 25 -3 41 1 47 11 18 27
-26 13 -31 13 -31 -4z"/>
<path d="M2725 2890 c-3 -6 1 -7 9 -4 18 7 21 14 7 14 -6 0 -13 -4 -16 -10z"/>
<path d="M2428 2723 c7 -3 16 -2 19 1 4 3 -2 6 -13 5 -11 0 -14 -3 -6 -6z"/>
<path d="M2956 2810 c-15 -5 -16 -9 -7 -14 7 -5 18 -3 24 3 14 14 6 20 -17 11z"/>
<path d="M2799 2603 c-28 -43 -103 -90 -151 -95 -38 -3 -50 -35 -22 -59 14
-12 19 -10 40 14 20 23 24 25 25 10 0 -17 1 -16 12 2 7 11 33 40 58 65 25 25
51 57 57 73 16 37 10 34 -19 -10z m-149 -128 c0 -8 -7 -15 -15 -15 -13 0 -14
3 -3 15 16 18 18 18 18 0z"/>
<path d="M2945 2544 c-28 -57 -40 -73 -47 -63 -7 10 -8 8 -3 -8 4 -16 0 -25
-14 -32 -26 -14 -31 -14 -31 4 0 8 4 15 9 15 5 0 12 8 15 18 4 9 -9 0 -29 -21
-43 -46 -45 -62 -7 -53 48 12 76 41 119 122 45 85 48 94 34 94 -5 0 -26 -34
-46 -76z"/>
<path d="M2579 2537 c-20 -15 -43 -57 -35 -64 3 -3 8 1 12 10 3 9 12 13 19 11
7 -3 16 -1 20 5 3 6 1 11 -6 11 -8 0 -8 4 1 15 16 20 10 27 -11 12z"/>
<path d="M2660 2546 c0 -2 7 -9 15 -16 12 -10 15 -10 15 4 0 9 -7 16 -15 16
-8 0 -15 -2 -15 -4z"/>
<path d="M3222 2513 c-26 -38 -34 -53 -29 -53 2 0 16 18 31 40 29 45 28 56 -2
13z"/>
<path d="M3366 2465 c-3 -9 1 -18 10 -22 19 -7 39 11 30 26 -10 16 -33 13 -40
-4z"/>
<path d="M3160 2398 c-13 -29 -26 -57 -28 -62 -3 -5 2 -5 9 -1 8 4 2 -3 -12
-16 -15 -13 -36 -39 -48 -56 -20 -29 -20 -32 -4 -26 10 3 32 21 48 40 17 18
38 33 47 33 11 0 15 6 11 20 -3 11 -9 17 -14 14 -14 -8 -11 23 4 38 10 10 21
68 13 68 -1 0 -13 -24 -26 -52z"/>
<path d="M3415 2320 c-3 -5 -1 -10 4 -10 6 0 11 5 11 10 0 6 -2 10 -4 10 -3 0
-8 -4 -11 -10z"/>
<path d="M3373 2264 c-33 -44 -125 -134 -136 -134 -4 0 4 16 19 35 14 19 21
35 15 35 -6 0 -11 -3 -11 -7 0 -5 -11 -13 -25 -20 -14 -6 -23 -7 -19 -2 3 5 1
9 -5 9 -5 0 -13 -4 -16 -10 -3 -5 -15 -10 -26 -10 -10 0 -19 -7 -19 -15 0 -8
-4 -15 -10 -15 -5 0 -10 6 -10 14 0 8 -4 17 -9 21 -6 3 -8 -12 -6 -36 4 -46
16 -59 56 -59 14 0 42 -12 62 -27 20 -16 48 -36 62 -46 15 -11 24 -25 21 -33
-3 -8 0 -14 7 -14 7 0 45 -16 85 -35 67 -32 82 -34 64 -10 -12 17 -56 51 -48
38 4 -7 4 -13 -1 -13 -16 0 -30 46 -19 63 8 13 8 20 -3 26 -8 5 -10 14 -5 22
6 10 3 10 -11 -1 -17 -14 -18 -13 -11 15 7 29 7 29 -8 10 -17 -22 -20 -42 -7
-47 4 -1 11 -13 15 -24 9 -30 -19 -39 -46 -14 -18 16 -19 22 -8 35 18 22 -2
44 -24 25 -17 -13 -46 -7 -46 10 0 6 4 9 10 5 14 -9 57 5 57 18 0 8 -17 11
-49 10 -26 -1 -48 3 -48 8 0 5 9 9 21 9 24 0 107 84 145 148 33 54 25 65 -13
16z m-183 -163 c0 -15 -16 -22 -35 -15 -13 5 -14 8 -3 15 18 12 38 11 38 0z"/>
<path d="M3620 2250 c0 -5 5 -10 11 -10 5 0 7 5 4 10 -3 6 -8 10 -11 10 -2 0
-4 -4 -4 -10z"/>
<path d="M3660 2218 c0 -7 5 -20 10 -28 8 -13 10 -12 10 3 0 9 0 20 1 24 0 4
-4 9 -10 11 -6 2 -11 -2 -11 -10z"/>
<path d="M3035 2200 c-10 -11 -16 -22 -13 -25 3 -3 13 6 22 20 20 30 16 32 -9
5z"/>
<path d="M3034 2139 c-2 -4 2 -10 8 -12 10 -4 10 -8 -1 -15 -10 -7 -4 -11 23
-14 20 -2 36 0 36 4 0 4 -7 8 -15 8 -8 0 -15 8 -15 18 0 18 -26 26 -36 11z"/>
<path d="M2885 2130 c-3 -4 4 -10 15 -13 11 -3 22 -2 25 3 3 4 -4 10 -15 13
-11 3 -22 2 -25 -3z"/>
<path d="M3375 2111 c-6 -11 9 -23 19 -14 9 9 7 23 -3 23 -6 0 -12 -4 -16 -9z"/>
<path d="M3480 1921 c0 -19 23 -35 34 -24 11 11 6 22 -14 33 -17 9 -20 8 -20
-9z"/>
<path d="M1620 2541 c0 -5 5 -13 10 -16 6 -3 10 -2 10 4 0 5 -4 13 -10 16 -5
3 -10 2 -10 -4z"/>
<path d="M1358 2433 c6 -2 18 -2 25 0 6 3 1 5 -13 5 -14 0 -19 -2 -12 -5z"/>
<path d="M2240 2216 c0 -8 7 -16 15 -20 8 -3 15 -13 15 -21 0 -15 2 -15 15 -1
27 26 17 42 -24 37 -7 -2 -10 2 -6 8 3 6 1 11 -4 11 -6 0 -11 -6 -11 -14z"/>
<path d="M2090 2280 c6 -11 17 -20 26 -20 12 0 12 4 4 20 -6 11 -17 20 -26 20
-12 0 -12 -4 -4 -20z"/>
<path d="M1865 1800 c-3 -5 -1 -10 4 -10 6 0 11 5 11 10 0 6 -2 10 -4 10 -3 0
-8 -4 -11 -10z"/>
<path d="M1786 1783 c-11 -11 -6 -23 9 -23 8 0 15 4 15 9 0 13 -16 22 -24 14z"/>
<path d="M1640 1699 c0 -5 5 -7 10 -4 6 3 10 8 10 11 0 2 -4 4 -10 4 -5 0 -10
-5 -10 -11z"/>
<path d="M1376 2121 c-4 -7 -5 -15 -2 -18 9 -9 19 4 14 18 -4 11 -6 11 -12 0z"/>
<path d="M1430 2085 c0 -13 4 -14 20 -5 11 6 20 13 20 15 0 3 -9 5 -20 5 -11
0 -20 -7 -20 -15z"/>
<path d="M1250 2095 c0 -8 4 -15 9 -15 5 0 11 7 15 15 3 9 0 15 -9 15 -8 0
-15 -7 -15 -15z"/>
<path d="M1290 2078 c-7 -14 -21 -29 -32 -31 -21 -6 -20 -28 1 -35 8 -3 12 1
9 9 -2 7 6 23 20 36 13 12 22 28 19 35 -3 8 -9 3 -17 -14z"/>
<path d="M1086 2021 c-10 -11 -16 -26 -13 -33 4 -8 6 -7 6 5 1 9 5 17 10 17 5
0 11 7 15 15 7 20 3 19 -18 -4z"/>
<path d="M1386 1864 c-5 -14 -4 -15 9 -4 17 14 19 20 6 20 -5 0 -12 -7 -15
-16z"/>
<path d="M2958 1962 c20 -21 39 -37 41 -35 6 4 -61 73 -71 73 -4 0 9 -17 30
-38z"/>
<path d="M3000 1964 c1 -16 29 -46 40 -42 6 2 0 14 -14 27 -14 14 -26 20 -26
15z"/>
<path d="M3125 1840 c-8 -12 20 -24 35 -15 5 3 10 10 10 16 0 12 -37 12 -45
-1z"/>
<path d="M3270 1821 c0 -6 -8 -11 -17 -11 -15 0 -14 -2 3 -14 13 -10 23 -11
31 -4 10 8 13 6 13 -6 0 -9 5 -16 11 -16 6 0 9 7 7 16 -4 20 -48 52 -48 35z"/>
<path d="M3183 1813 c9 -2 23 -2 30 0 6 3 -1 5 -18 5 -16 0 -22 -2 -12 -5z"/>
<path d="M3380 1772 c0 -12 59 -22 66 -10 3 4 -4 8 -15 8 -10 0 -26 3 -35 6
-9 3 -16 2 -16 -4z"/>
<path d="M3470 1710 c0 -5 7 -10 16 -10 8 0 12 5 9 10 -3 6 -10 10 -16 10 -5
0 -9 -4 -9 -10z"/>
<path d="M885 2000 c3 -5 8 -10 11 -10 2 0 4 5 4 10 0 6 -5 10 -11 10 -5 0 -7
-4 -4 -10z"/>
<path d="M895 1970 c-19 -8 -19 -9 3 -9 12 -1 22 4 22 9 0 6 -1 10 -2 9 -2 0
-12 -4 -23 -9z"/>
<path d="M345 1844 c-11 -8 -28 -13 -38 -10 -9 2 -15 1 -12 -4 5 -8 60 -23 83
-23 30 1 35 5 15 13 -27 11 -30 27 -5 33 14 4 14 5 -3 6 -11 0 -29 -6 -40 -15z"/>
<path d="M423 1603 c9 -2 23 -2 30 0 6 3 -1 5 -18 5 -16 0 -22 -2 -12 -5z"/>
<path d="M2437 1850 c-26 -16 -47 -32 -47 -35 0 -8 98 43 105 55 11 18 -10 11
-58 -20z"/>
<path d="M2423 1810 c-13 -5 -23 -11 -23 -14 0 -7 40 6 46 15 6 10 6 10 -23
-1z"/>
<path d="M2467 1802 c-10 -10 -14 -22 -10 -25 3 -4 2 -7 -3 -7 -5 0 -20 -9
-34 -21 l-25 -20 38 18 c20 9 37 21 37 26 0 5 10 17 23 28 17 14 18 18 6 19
-9 0 -23 -8 -32 -18z"/>
<path d="M2282 1768 c-23 -11 -41 -23 -38 -25 5 -5 96 35 96 42 0 9 -14 4 -58
-17z"/>
<path d="M2344 1764 c-18 -14 -18 -15 4 -4 12 6 22 13 22 15 0 8 -5 6 -26 -11z"/>
<path d="M2367 1751 c-40 -26 -47 -36 -12 -18 42 23 62 37 50 36 -5 0 -22 -8
-38 -18z"/>
<path d="M2295 1740 c-3 -5 -2 -10 4 -10 5 0 13 5 16 10 3 6 2 10 -4 10 -5 0
-13 -4 -16 -10z"/>
<path d="M2398 1490 c-15 -4 -29 -5 -32 -2 -3 3 -6 0 -6 -7 0 -9 8 -11 23 -7
12 3 30 6 40 6 9 0 17 5 17 10 0 11 -5 11 -42 0z"/>
<path d="M3300 1520 c0 -5 5 -10 10 -10 6 0 10 5 10 10 0 6 -4 10 -10 10 -5 0
-10 -4 -10 -10z"/>
<path d="M3391 1641 c-10 -7 -10 -10 -1 -16 9 -6 9 -10 -1 -16 -10 -6 -8 -9 9
-9 23 0 25 4 14 32 -5 11 -12 14 -21 9z"/>
<path d="M790 1529 c0 -5 5 -7 10 -4 6 3 10 8 10 11 0 2 -4 4 -10 4 -5 0 -10
-5 -10 -11z"/>
<path d="M1400 1400 c0 -19 11 -26 23 -14 8 8 -3 34 -14 34 -5 0 -9 -9 -9 -20z"/>
<path d="M1450 1411 c0 -5 7 -11 14 -14 10 -4 13 -1 9 9 -6 15 -23 19 -23 5z"/>
<path d="M3090 1310 c0 -5 7 -7 15 -4 8 4 15 8 15 10 0 2 -7 4 -15 4 -8 0 -15
-4 -15 -10z"/>
<path d="M1810 1250 c0 -5 5 -10 10 -10 6 0 10 5 10 10 0 6 -4 10 -10 10 -5 0
-10 -4 -10 -10z"/>
<path d="M1670 1230 c0 -5 5 -10 10 -10 6 0 10 5 10 10 0 6 -4 10 -10 10 -5 0
-10 -4 -10 -10z"/>
<path d="M1665 1190 c-3 -5 -1 -10 4 -10 6 0 11 5 11 10 0 6 -2 10 -4 10 -3 0
-8 -4 -11 -10z"/>
<path d="M1790 1191 c0 -17 18 -21 24 -6 3 9 0 15 -9 15 -8 0 -15 -4 -15 -9z"/>
<path d="M1705 1180 c-3 -5 1 -10 10 -10 9 0 13 5 10 10 -3 6 -8 10 -10 10 -2
0 -7 -4 -10 -10z"/>
<path d="M2001 1284 c0 -11 3 -14 6 -6 3 7 2 16 -1 19 -3 4 -6 -2 -5 -13z"/>
<path d="M2635 1251 c-17 -8 -24 -16 -17 -19 9 -3 10 -7 2 -17 -9 -11 -7 -12
10 -8 20 5 44 37 38 51 -2 4 -16 1 -33 -7z"/>
<path d="M2535 1240 c-3 -5 -1 -10 4 -10 6 0 11 5 11 10 0 6 -2 10 -4 10 -3 0
-8 -4 -11 -10z"/>
<path d="M2445 1160 c-3 -5 1 -10 9 -10 9 0 16 5 16 10 0 6 -4 10 -9 10 -6 0
-13 -4 -16 -10z"/>
<path d="M2799 1218 c-12 -23 -12 -23 10 -4 23 21 26 26 11 26 -5 0 -15 -10
-21 -22z"/>
<path d="M1730 1050 c0 -5 5 -10 10 -10 6 0 10 5 10 10 0 6 -4 10 -10 10 -5 0
-10 -4 -10 -10z"/>
<path d="M3061 1144 c0 -11 3 -14 6 -6 3 7 2 16 -1 19 -3 4 -6 -2 -5 -13z"/>
<path d="M3080 1150 c0 -5 9 -10 20 -10 11 0 20 5 20 10 0 6 -9 10 -20 10 -11
0 -20 -4 -20 -10z"/>
<path d="M3170 1151 c0 -6 5 -13 10 -16 6 -3 10 1 10 9 0 9 -4 16 -10 16 -5 0
-10 -4 -10 -9z"/>
<path d="M3212 1151 c-11 -7 -10 -10 3 -15 28 -10 45 -7 45 9 0 16 -27 20 -48
6z"/>
<path d="M3275 1151 c-3 -5 -2 -12 3 -15 5 -3 9 1 9 9 0 17 -3 19 -12 6z"/>
<path d="M3301 1144 c0 -11 3 -14 6 -6 3 7 2 16 -1 19 -3 4 -6 -2 -5 -13z"/>
<path d="M3321 1144 c0 -11 3 -14 6 -6 3 7 2 16 -1 19 -3 4 -6 -2 -5 -13z"/>
<path d="M3370 1143 c0 -7 7 -13 15 -13 8 0 15 6 15 13 0 8 -7 14 -15 14 -8 0
-15 -6 -15 -14z"/>
<path d="M3411 1144 c0 -11 3 -14 6 -6 3 7 2 16 -1 19 -3 4 -6 -2 -5 -13z"/>
<path d="M3160 1100 c0 -5 7 -10 15 -10 8 0 15 5 15 10 0 6 -7 10 -15 10 -8 0
-15 -4 -15 -10z"/>
<path d="M3200 1098 c0 -11 47 -10 55 1 3 5 -8 9 -25 9 -16 -1 -30 -5 -30 -10z"/>
<path d="M3280 1100 c-14 -9 -7 -14 14 -11 4 1 23 2 42 3 18 1 31 5 28 10 -7
11 -66 10 -84 -2z"/>
<path d="M1281 876 c-41 -44 -37 -131 9 -156 17 -9 24 -7 45 14 33 33 36 115
5 146 -26 26 -32 25 -59 -4z m53 -22 c17 -43 -1 -114 -29 -114 -17 0 -38 61
-29 86 16 44 46 59 58 28z"/>
<path d="M1860 879 c0 -3 7 -20 16 -37 13 -28 14 -58 5 -253 -9 -191 -13 -226
-30 -255 -11 -18 -17 -35 -13 -38 10 -6 241 -5 280 1 l32 5 0 109 c0 60 -4
109 -8 109 -5 0 -14 -24 -22 -52 -15 -61 -56 -108 -94 -108 -13 0 -27 4 -30 8
-3 5 -2 105 2 224 7 204 8 218 30 247 17 23 19 33 10 36 -21 7 -178 11 -178 4z
m144 -31 c-4 -7 -13 -35 -20 -63 -7 -27 -13 -40 -13 -28 -1 16 -6 20 -22 16
-11 -3 -25 -15 -29 -27 -7 -16 -9 -11 -10 24 0 25 -3 55 -6 68 -6 21 -4 22 50
22 42 0 55 -3 50 -12z m-107 -450 c-3 -7 -5 -2 -5 12 0 14 2 19 5 13 2 -7 2
-19 0 -25z m219 -16 c-15 -15 -15 -15 -4 10 7 15 15 23 17 17 2 -6 -4 -18 -13
-27z"/>
<path d="M2750 871 c0 -6 4 -12 9 -15 15 -10 23 -75 15 -132 l-6 -54 -25 20
c-121 95 -250 -153 -169 -326 39 -84 87 -104 154 -62 25 15 37 18 40 10 4 -12
132 -18 132 -6 0 3 -7 13 -16 22 -15 14 -16 45 -12 284 l5 268 -63 0 c-35 0
-64 -4 -64 -9z m106 -133 c-4 -67 -9 -124 -11 -127 -3 -2 -5 3 -5 12 0 17 -34
32 -51 22 -8 -5 -8 -10 0 -18 7 -7 10 -50 9 -112 l-2 -100 -3 93 c-3 62 -9
102 -19 117 -13 20 -13 23 1 28 12 5 15 26 15 107 l0 100 36 0 37 0 -7 -122z
m-125 -69 c13 -11 19 -18 12 -14 -15 7 -73 -22 -73 -37 0 -6 -3 -8 -6 -5 -4 4
-1 13 5 21 15 18 2 26 -26 15 -27 -10 -53 -58 -63 -118 -7 -42 -8 -43 -9 -11
0 19 10 58 23 86 38 81 90 105 137 63z m29 -58 c5 -11 10 -63 10 -115 0 -83
-3 -99 -20 -116 -11 -11 -27 -20 -35 -20 -53 0 -63 229 -12 262 21 14 46 8 57
-11z m-177 -176 c4 -27 3 -35 -3 -25 -5 8 -10 28 -10 44 0 39 6 30 13 -19z
m200 -79 c4 -10 1 -13 -8 -9 -8 3 -12 9 -9 14 7 12 11 11 17 -5z m70 -33 c-7
-2 -19 -2 -25 0 -7 3 -2 5 12 5 14 0 19 -2 13 -5z"/>
<path d="M270 850 c0 -6 7 -22 16 -35 13 -21 15 -43 9 -142 -13 -231 -25 -326
-46 -360 l-21 -33 161 0 c88 0 162 3 164 8 3 4 7 53 8 109 4 113 -6 128 -32
50 -23 -68 -53 -97 -101 -97 l-39 0 5 53 c4 28 11 120 16 202 12 174 16 199
36 216 8 6 14 18 14 25 0 11 -21 14 -95 14 -59 0 -95 -4 -95 -10z m152 -23
c-6 -7 -15 -35 -20 -62 -5 -28 -10 -39 -11 -25 -1 16 -10 29 -25 36 -23 11
-25 9 -34 -25 l-10 -36 -1 47 c-1 25 -3 53 -6 60 -4 11 8 14 56 16 48 1 59 -1
51 -11z"/>
<path d="M1033 709 c-39 -11 -96 -76 -111 -128 -20 -65 -15 -161 11 -211 28
-55 63 -81 118 -87 33 -3 54 2 84 19 39 23 40 26 43 81 3 64 -10 75 -28 22
-21 -65 -81 -80 -109 -27 -30 58 -17 208 22 250 38 41 86 21 101 -40 12 -53
26 -28 26 48 0 61 -3 74 -13 66 -9 -8 -24 -7 -52 3 -46 16 -49 16 -92 4z m52
-36 c-16 -8 -38 -25 -48 -37 -11 -14 -15 -15 -11 -5 10 29 -15 31 -41 3 -14
-15 -25 -32 -25 -37 0 -6 -3 -8 -6 -5 -10 10 28 60 61 79 16 11 46 19 65 19
l35 -1 -30 -16z m85 -20 c0 -10 -4 -14 -8 -8 -4 6 -11 13 -16 18 -5 4 -2 7 7
7 10 0 17 -8 17 -17z m-33 -318 c-15 -14 -36 -25 -45 -25 -9 1 -3 7 14 14 18
8 35 19 38 25 4 6 10 11 14 11 4 0 -6 -12 -21 -25z"/>
<path d="M1487 706 c-26 -7 -49 -15 -51 -17 -2 -2 -6 -28 -10 -56 -8 -60 4
-69 30 -23 20 33 63 55 93 45 18 -5 40 -60 28 -71 -2 -3 -35 -16 -73 -30 -82
-29 -110 -57 -120 -120 -18 -121 73 -199 154 -132 12 10 16 10 19 1 3 -9 27
-13 74 -13 69 0 80 5 57 29 -9 8 -13 57 -13 172 l0 161 -33 29 c-18 16 -43 29
-56 29 -14 0 -30 2 -38 4 -7 3 -34 -1 -61 -8z m93 -23 c0 -5 -19 -8 -42 -8
-24 0 -54 -3 -68 -7 -19 -6 -18 -4 5 7 32 15 105 20 105 8z m-60 -157 c0 -2
-7 -6 -15 -10 -8 -3 -15 -1 -15 4 0 6 7 10 15 10 8 0 15 -2 15 -4z m-59 -20
c-13 -7 -30 -24 -37 -37 -7 -13 -13 -18 -14 -11 0 17 45 62 62 62 7 -1 2 -7
-11 -14z m109 -49 c0 -65 -21 -107 -55 -107 -46 0 -44 111 2 147 45 37 53 31
53 -40z"/>
<path d="M2282 699 c-102 -51 -142 -211 -82 -329 73 -142 284 -103 319 59 21
101 9 178 -36 232 -51 60 -127 75 -201 38z m119 -10 c39 -13 66 -35 81 -64 7
-14 3 -11 -15 8 -36 38 -48 35 -36 -9 6 -19 8 -41 6 -47 -2 -7 -7 6 -11 28
-15 82 -74 105 -122 48 -15 -17 -24 -22 -29 -13 -5 8 -15 5 -33 -12 l-25 -23
15 23 c20 29 51 51 86 62 38 12 45 11 83 -1z m-4 -59 c16 -31 17 -152 2 -220
-12 -58 -45 -84 -74 -60 -47 39 -41 270 8 302 21 14 51 4 64 -22z m-190 -72
c-3 -8 -6 -5 -6 6 -1 11 2 17 5 13 3 -3 4 -12 1 -19z m228 -105 c-4 -30 -9
-53 -11 -50 -3 3 -2 33 2 68 4 35 9 58 12 51 2 -7 1 -38 -3 -69z m-168 0 c-3
-10 -5 -4 -5 12 0 17 2 24 5 18 2 -7 2 -21 0 -30z m-60 -35 c-3 -8 -6 -5 -6 6
-1 11 2 17 5 13 3 -3 4 -12 1 -19z m21 -43 c-3 -3 -9 2 -12 12 -6 14 -5 15 5
6 7 -7 10 -15 7 -18z"/>
<path d="M2972 685 c-73 -61 -101 -231 -54 -323 24 -44 72 -82 107 -82 11 0
35 9 54 21 l33 20 -4 -61 c-7 -101 -62 -146 -121 -100 -14 11 -32 36 -38 55
-20 53 -29 42 -29 -35 l0 -70 36 -15 c20 -8 60 -15 88 -15 72 0 111 26 143 97
25 53 26 67 30 262 4 153 9 212 19 228 8 12 14 25 14 28 0 3 -29 5 -65 5 -51
0 -65 -3 -65 -15 0 -20 -7 -19 -37 5 -35 27 -75 25 -111 -5z m109 -22 l32 -27
17 22 c22 27 86 32 76 6 -3 -9 -7 -39 -8 -67 -1 -44 -2 -46 -5 -14 -4 30 -8
37 -26 37 -22 0 -23 -3 -21 -102 1 -69 -3 -115 -13 -138 -9 -23 -10 -36 -3
-38 5 -2 9 -25 8 -50 l-1 -47 -4 43 c-2 24 -10 45 -17 48 -7 3 -30 -5 -50 -17
-36 -21 -39 -21 -72 -5 -43 20 -84 101 -83 161 1 37 2 35 13 -20 15 -74 41
-121 77 -135 24 -10 34 -8 72 14 25 15 48 37 51 49 3 12 6 68 6 124 0 98 -1
102 -26 122 -35 28 -48 26 -77 -9 -19 -22 -26 -26 -31 -15 -14 38 -66 -12 -66
-65 0 -11 -5 -20 -11 -20 -25 0 34 131 69 153 38 23 56 21 93 -10z m23 -64
c11 -17 14 -41 10 -103 -7 -109 -11 -124 -35 -131 -15 -5 -28 -1 -43 14 -18
19 -21 33 -21 104 0 63 4 90 18 110 21 32 50 35 71 6z m-107 -41 c-3 -8 -6 -5
-6 6 -1 11 2 17 5 13 3 -3 4 -12 1 -19z m8 -170 c5 -19 4 -20 -5 -6 -6 10 -13
42 -15 70 l-4 53 8 -47 c5 -25 12 -57 16 -70z m192 40 c-3 -8 -6 -5 -6 6 -1
11 2 17 5 13 3 -3 4 -12 1 -19z m-70 -220 c-3 -8 -6 -5 -6 6 -1 11 2 17 5 13
3 -3 4 -12 1 -19z m-89 -97 c55 -8 55 -9 14 -10 -40 -1 -112 21 -112 34 0 3 9
1 20 -5 11 -6 46 -15 78 -19z"/>
<path d="M834 693 l-41 -4 -7 -61 c-3 -34 -6 -95 -6 -137 0 -87 -17 -124 -53
-119 -22 3 -22 6 -19 161 l3 157 -70 0 c-55 0 -71 -3 -71 -14 0 -8 5 -18 11
-22 7 -4 10 -58 7 -164 -3 -148 -2 -160 18 -187 28 -38 91 -44 134 -13 25 18
30 19 30 6 0 -13 13 -16 70 -16 73 0 80 5 56 43 -11 18 -12 54 -5 191 8 162 6
188 -9 184 -4 -1 -26 -3 -48 -5z m-145 -55 c-1 -31 -2 -31 -8 -8 -6 20 -14 25
-39 26 -51 1 -50 14 1 14 47 0 47 0 46 -32z m190 10 c-1 -17 -2 -19 -6 -5 -6
22 -14 22 -41 -3 l-22 -21 0 26 c0 22 4 25 35 25 30 0 35 -3 34 -22z"/>
<path d="M1220 686 c0 -8 5 -18 11 -22 19 -11 6 -297 -15 -329 -27 -41 -21
-45 64 -45 74 0 97 9 69 26 -9 5 -10 58 -5 195 l7 189 -65 0 c-51 0 -66 -3
-66 -14z m64 -23 c-5 -5 -12 -12 -16 -18 -4 -6 -8 -2 -8 8 0 9 7 17 17 17 9 0
12 -3 7 -7z"/>
<path d="M3334 681 c-58 -35 -77 -75 -82 -168 -3 -62 0 -95 12 -127 37 -97
168 -146 247 -93 30 20 34 28 37 75 3 54 -13 72 -24 28 -24 -97 -156 -68 -158
36 l-1 43 99 -4 99 -3 -7 53 c-19 145 -123 220 -222 160z m126 -16 c30 -15 51
-48 64 -95 7 -24 6 -24 -8 -6 -15 19 -16 18 -17 -15 -1 -19 -1 -37 0 -41 0 -3
-35 -8 -78 -10 -47 -2 -78 1 -78 7 0 6 27 9 67 7 78 -4 81 0 70 71 -8 57 -33
87 -72 87 -22 0 -33 -7 -46 -30 -12 -21 -23 -29 -35 -26 -43 11 -66 -148 -31
-217 24 -46 44 -67 83 -83 48 -20 73 -18 115 11 30 20 35 22 27 6 -15 -27 -65
-45 -108 -38 -52 9 -107 51 -129 100 -26 57 -25 161 2 208 41 69 113 96 174
64z m-17 -27 c9 -8 20 -34 23 -60 l7 -48 -57 0 c-53 0 -56 1 -56 25 0 14 7 41
14 60 16 37 39 45 69 23z m-106 -60 c-3 -8 -6 -5 -6 6 -1 11 2 17 5 13 3 -3 4
-12 1 -19z m188 -78 c3 -5 1 -10 -4 -10 -6 0 -11 5 -11 10 0 6 2 10 4 10 3 0
8 -4 11 -10z"/>
<path d="M1865 120 c0 -39 1 -40 32 -40 23 0 33 5 33 15 0 8 6 15 14 15 8 0
16 -7 20 -15 3 -9 19 -15 41 -15 32 0 35 2 25 20 -6 10 -9 25 -8 32 4 14 -39
25 -107 27 l-50 1 0 -40z m95 16 c0 -2 -7 -6 -15 -10 -8 -3 -15 -1 -15 4 0 6
7 10 15 10 8 0 15 -2 15 -4z"/>
<path d="M2417 148 c-21 -7 -27 -16 -25 -32 2 -16 13 -23 49 -30 46 -9 99 -2
99 12 0 4 -20 6 -45 4 -41 -4 -45 -2 -45 18 0 20 4 22 45 18 28 -2 45 1 45 8
0 14 -87 16 -123 2z"/>
<path d="M2660 147 c0 -8 -9 -22 -20 -32 -24 -22 -26 -35 -5 -35 8 0 15 5 15
10 0 6 14 10 30 10 17 0 30 -4 30 -10 0 -5 16 -10 36 -10 20 0 34 3 32 8 -3 4
-11 22 -18 40 -13 29 -18 32 -57 32 -29 0 -43 -4 -43 -13z m37 -23 c-3 -3 -12
-4 -19 -1 -8 3 -5 6 6 6 11 1 17 -2 13 -5z"/>
<path d="M590 141 c-31 -5 -35 -10 -38 -39 l-3 -33 83 3 83 3 -3 30 c-2 16 -4
30 -5 31 -8 7 -89 10 -117 5z m55 -21 c-3 -5 -10 -10 -16 -10 -5 0 -9 5 -9 10
0 6 7 10 16 10 8 0 12 -4 9 -10z m5 -30 c0 -5 -7 -10 -15 -10 -8 0 -15 5 -15
10 0 6 7 10 15 10 8 0 15 -4 15 -10z"/>
<path d="M815 110 c0 -39 0 -40 35 -40 34 0 35 1 35 40 0 39 -1 40 -35 40 -35
0 -35 -1 -35 -40z"/>
<path d="M997 134 c-53 -29 -7 -64 85 -64 65 0 83 16 64 56 -10 21 -18 24 -66
24 -30 -1 -68 -8 -83 -16z m123 -14 c0 -5 -9 -10 -21 -10 -11 0 -18 -4 -15 -9
8 -12 -18 -21 -34 -11 -24 15 -3 40 35 40 19 0 35 -4 35 -10z"/>
<path d="M1399 140 c-9 -5 -16 -23 -17 -41 l-1 -31 65 4 c73 5 85 12 77 51 -5
25 -9 27 -57 27 -28 0 -58 -5 -67 -10z m92 -18 c-7 -2 -18 1 -23 6 -8 8 -4 9
13 5 13 -4 18 -8 10 -11z m-46 -32 c7 -12 -2 -12 -30 0 -19 8 -19 9 2 9 12 1
25 -3 28 -9z"/>
<path d="M1618 119 c6 -40 37 -55 94 -43 37 8 43 13 49 42 5 26 3 32 -10 32
-12 0 -17 -8 -16 -27 0 -23 -5 -29 -29 -31 -27 -3 -28 -2 -24 27 4 30 3 31
-32 31 -35 0 -36 -1 -32 -31z"/>
<path d="M2117 103 c-3 -5 -2 -15 2 -21 9 -15 43 -4 38 12 -5 14 -33 20 -40 9z"/>
</g>
</svg>
